<?xml version="1.0" standalone="no"?>
<!DOCTYPE svg PUBLIC "-//W3C//DTD SVG 20010904//EN"
 "http://www.w3.org/TR/2001/REC-SVG-20010904/DTD/svg10.dtd">
<svg version="1.0" xmlns="http://www.w3.org/2000/svg"
 width="1890.000000pt" height="1890.000000pt" viewBox="0 0 1890.000000 1890.000000"
 preserveAspectRatio="xMidYMid meet">
<metadata>
Created by potrace 1.11, written by Peter Selinger 2001-2013
</metadata>
<g transform="translate(0.000000,1890.000000) scale(0.100000,-0.100000)"
fill="#000000" stroke="none">
<path d="M9655 17724 c-82 -38 -191 -88 -195 -89 -3 -1 -23 -9 -45 -19 -22
-10 -57 -24 -77 -33 -21 -8 -38 -19 -38 -25 0 -5 -4 -7 -8 -4 -5 3 -19 -1 -33
-7 -13 -7 -49 -23 -79 -36 -30 -13 -84 -37 -120 -53 -36 -16 -78 -36 -95 -43
-16 -7 -57 -26 -90 -40 -33 -15 -118 -53 -190 -85 -71 -32 -238 -106 -370
-165 -132 -59 -280 -125 -330 -147 -49 -22 -123 -55 -163 -74 -41 -19 -76 -34
-78 -34 -2 0 -32 -13 -66 -29 -251 -114 -405 -181 -417 -181 -6 0 -11 -4 -11
-10 0 -5 -5 -10 -12 -10 -6 0 -30 -8 -52 -19 -67 -30 -210 -94 -596 -266 -475
-212 -477 -213 -530 -237 -25 -11 -79 -35 -121 -53 -77 -33 -117 -51 -272
-124 -49 -22 -91 -41 -94 -41 -2 0 -25 -10 -51 -21 -81 -37 -175 -80 -218
-100 -22 -10 -43 -19 -47 -19 -3 0 -45 -18 -94 -41 -48 -22 -164 -74 -258
-116 -93 -41 -188 -83 -210 -93 -22 -10 -85 -38 -140 -63 -55 -25 -135 -61
-178 -81 -43 -20 -80 -36 -82 -36 -2 0 -32 -13 -67 -29 -82 -38 -133 -61 -243
-109 -49 -22 -110 -49 -135 -60 -25 -11 -112 -51 -195 -87 -82 -37 -178 -80
-213 -96 -35 -16 -68 -29 -73 -29 -5 0 -9 -5 -9 -11 0 -5 -4 -8 -8 -5 -5 3
-19 -1 -33 -7 -13 -7 -69 -32 -124 -57 -55 -24 -106 -48 -114 -54 -7 -6 -19
-11 -25 -11 -12 -1 -29 -8 -126 -53 -36 -16 -128 -57 -205 -92 -77 -34 -162
-73 -190 -85 -27 -13 -108 -49 -180 -80 -71 -32 -168 -75 -213 -96 -46 -22
-85 -39 -87 -39 -2 0 -36 -15 -77 -34 -74 -34 -149 -68 -158 -71 -15 -5 -119
-52 -232 -104 -37 -17 -93 -41 -125 -55 -32 -13 -89 -39 -128 -56 -168 -77
-197 -90 -200 -90 -2 0 -38 -16 -82 -36 -93 -42 -123 -56 -183 -82 -43 -19
-94 -42 -228 -103 -35 -16 -65 -29 -67 -29 -2 0 -32 -13 -67 -29 -35 -16 -85
-39 -113 -51 -27 -12 -72 -33 -100 -45 -27 -13 -93 -42 -145 -64 -103 -45
-150 -82 -150 -117 0 -21 18 -66 81 -202 16 -35 29 -65 29 -67 0 -2 16 -39 36
-82 19 -43 43 -96 53 -118 62 -142 77 -172 88 -186 7 -9 11 -18 8 -21 -3 -2
13 -42 35 -87 22 -45 40 -86 40 -91 0 -6 5 -10 11 -10 5 0 7 -5 4 -10 -4 -6 0
-22 9 -35 9 -13 24 -45 35 -72 17 -43 134 -306 181 -408 10 -22 63 -141 118
-265 55 -124 114 -255 131 -292 17 -36 31 -69 31 -71 0 -3 22 -53 50 -112 27
-59 50 -108 50 -110 0 -4 42 -98 85 -190 13 -27 38 -84 55 -125 18 -41 48
-109 67 -150 19 -41 41 -91 50 -110 8 -19 23 -53 33 -75 9 -22 24 -56 33 -75
8 -19 26 -60 40 -90 14 -30 35 -77 47 -105 12 -27 33 -75 47 -105 99 -218 263
-592 263 -600 0 -6 5 -10 10 -10 6 0 10 -6 10 -14 0 -8 15 -47 34 -88 44 -95
244 -542 264 -590 8 -21 19 -38 24 -38 5 0 7 -4 4 -9 -3 -4 3 -26 13 -47 11
-22 46 -100 79 -174 33 -74 72 -161 86 -192 14 -31 26 -59 26 -61 0 -3 20 -48
45 -100 25 -53 45 -98 45 -101 0 -2 18 -44 41 -93 22 -48 46 -101 54 -118 7
-16 25 -57 40 -90 15 -33 52 -116 82 -185 30 -69 69 -154 85 -190 28 -61 49
-108 53 -120 1 -3 14 -32 29 -65 15 -33 36 -78 46 -100 26 -60 60 -135 80
-180 10 -22 66 -148 125 -280 58 -132 116 -260 127 -285 11 -25 38 -85 60
-135 21 -49 47 -108 58 -130 26 -55 71 -157 105 -235 15 -36 31 -69 36 -74 5
-6 9 -18 9 -27 0 -10 6 -24 12 -31 7 -7 14 -20 16 -28 2 -8 14 -37 27 -64 37
-82 71 -157 175 -391 54 -121 110 -246 124 -277 65 -144 76 -169 76 -173 0 -3
18 -42 40 -87 22 -46 40 -86 40 -89 0 -4 17 -45 39 -91 21 -45 55 -121 76
-168 21 -47 49 -110 62 -140 14 -30 42 -93 63 -140 52 -118 79 -178 100 -225
10 -22 31 -69 46 -105 16 -36 32 -67 36 -68 5 -2 16 -11 24 -20 16 -16 75 -19
98 -4 6 3 16 7 21 8 6 1 54 23 108 48 54 25 100 46 102 46 3 0 35 14 72 31 38
17 84 37 103 46 19 8 42 19 50 24 8 5 22 12 30 15 31 12 137 58 200 86 36 16
76 34 90 40 14 6 32 14 40 19 8 5 22 12 30 15 8 3 33 13 55 23 22 10 58 27 80
36 22 10 58 26 79 36 22 11 46 19 53 19 7 0 13 5 13 10 0 6 6 10 14 10 8 0 45
14 83 31 165 76 190 87 223 101 19 9 55 25 80 36 25 11 86 38 135 60 50 22
115 51 145 65 114 52 170 77 335 150 209 92 280 124 325 145 19 9 37 17 40 17
5 2 50 22 142 64 26 11 48 21 50 21 2 0 4 -134 4 -297 2 -320 8 -473 29 -633
7 -58 13 -104 19 -161 3 -26 8 -60 11 -75 7 -34 24 -130 29 -159 7 -39 23
-116 26 -125 1 -3 3 -9 4 -15 1 -5 5 -23 9 -40 4 -16 9 -39 12 -50 2 -11 14
-51 25 -90 12 -38 25 -83 30 -100 4 -16 17 -57 29 -90 12 -33 24 -67 26 -75
14 -50 31 -90 37 -90 5 0 8 -8 8 -18 0 -10 7 -28 16 -40 8 -12 12 -22 8 -22
-3 0 -1 -7 6 -15 7 -8 9 -15 5 -15 -5 0 0 -9 10 -20 10 -11 15 -20 12 -20 -5
0 65 -143 90 -182 4 -7 8 -20 10 -28 1 -8 7 -16 12 -18 6 -2 11 -10 11 -18 0
-8 4 -14 9 -14 5 0 11 -8 15 -17 3 -10 14 -31 24 -48 10 -16 29 -47 41 -67 13
-21 27 -38 32 -38 5 0 9 -6 9 -14 0 -7 15 -28 32 -47 18 -19 31 -36 29 -37 -1
-2 11 -20 28 -39 17 -19 31 -37 31 -40 0 -3 17 -23 38 -46 59 -64 222 -229
222 -224 0 3 21 -15 46 -38 77 -72 365 -268 405 -277 8 -2 16 -6 19 -9 9 -11
190 -99 190 -93 0 4 6 2 13 -4 11 -9 182 -79 212 -86 6 -2 23 -8 38 -15 16 -6
33 -9 38 -5 5 3 9 0 9 -6 0 -6 6 -10 13 -9 6 1 19 0 27 -4 20 -8 245 -63 295
-73 22 -4 47 -9 55 -10 37 -7 220 -33 285 -40 129 -14 237 -18 480 -18 301 0
456 6 705 29 107 9 128 12 190 20 30 4 71 8 90 10 34 3 82 10 148 21 48 8 104
16 127 18 11 1 29 5 40 8 11 4 42 9 69 13 27 3 52 8 55 10 3 1 23 6 43 9 21 3
59 11 85 17 27 6 55 12 63 14 8 2 47 11 85 20 39 9 81 19 94 21 13 3 32 9 42
15 10 5 22 8 26 7 4 -1 28 5 53 12 58 17 72 21 88 22 6 1 12 6 12 11 0 6 3 8
6 4 5 -5 84 14 124 30 8 3 20 7 27 9 17 3 113 34 144 45 l26 10 0 1719 c0 946
-3 1721 -6 1722 -3 0 -596 2 -1317 3 l-1311 1 0 -585 0 -586 626 2 c344 1 628
-2 631 -7 6 -10 5 -1378 -1 -1384 -2 -3 -18 -7 -34 -10 -17 -2 -30 -5 -30 -6
0 -1 -12 -3 -26 -5 -15 -2 -44 -6 -65 -10 -22 -4 -48 -8 -59 -10 -11 -2 -33
-6 -50 -9 -16 -3 -52 -8 -80 -11 -27 -3 -66 -8 -85 -10 -133 -19 -575 -26
-695 -12 -108 13 -253 40 -325 61 -44 13 -78 25 -105 37 -16 7 -33 13 -36 13
-10 2 -114 50 -119 56 -3 3 -17 11 -32 17 -15 7 -44 23 -65 36 -21 13 -40 24
-43 24 -3 -1 -18 11 -34 26 -16 15 -35 27 -43 27 -8 0 -11 5 -8 10 3 6 1 10
-5 10 -6 0 -21 10 -34 23 -13 12 -50 47 -82 78 -33 31 -77 78 -99 105 -22 27
-45 55 -52 62 -7 7 -13 17 -13 21 0 4 -9 19 -20 32 -31 38 -34 42 -50 74 -8
17 -18 32 -21 35 -3 3 -16 28 -29 55 -13 28 -26 52 -30 55 -6 5 -20 39 -80
193 -21 53 -37 97 -35 97 2 0 -3 16 -11 35 -8 19 -14 37 -14 40 0 3 -1 7 -1
10 -1 3 -3 10 -4 15 -1 6 -3 11 -5 13 -2 3 -9 35 -14 62 -2 11 -11 56 -20 100
-10 44 -20 94 -22 110 -3 17 -7 41 -9 55 -2 14 -7 52 -10 85 -4 33 -9 74 -11
90 -14 103 -18 199 -18 430 0 300 11 442 49 625 3 14 8 39 11 55 11 61 46 192
70 260 14 39 27 77 29 85 5 23 24 66 24 58 1 -6 90 32 309 133 35 16 66 29 68
29 3 0 38 15 77 34 40 18 131 59 202 91 72 32 153 68 180 80 28 12 174 78 325
145 151 67 277 125 280 129 3 3 12 7 20 9 18 4 161 66 315 137 28 12 73 32
100 44 28 12 58 26 67 31 10 6 25 10 33 10 8 0 15 5 15 10 0 6 5 10 11 10 10
0 396 170 502 220 41 20 43 20 132 -4 76 -21 72 -20 125 -36 25 -7 50 -14 55
-16 13 -3 106 -34 125 -41 8 -4 18 -7 23 -8 4 -2 9 -4 12 -5 3 -1 8 -3 13 -5
14 -4 47 -17 67 -26 12 -6 27 -11 35 -13 8 -2 33 -11 55 -21 22 -11 42 -19 45
-20 3 0 36 -15 73 -33 81 -38 83 -38 90 -12 3 11 6 23 7 25 0 3 12 31 27 62
28 64 46 105 48 113 1 3 9 22 18 44 9 21 17 40 17 42 0 2 11 28 25 58 14 30
25 58 25 61 0 3 9 25 19 49 11 23 29 65 40 92 10 27 27 67 37 89 10 22 19 45
20 50 12 41 32 81 44 83 12 3 281 121 410 180 30 14 57 26 60 27 8 3 80 35
158 71 41 19 75 34 77 34 2 0 36 15 77 34 40 18 111 50 158 71 47 21 118 53
158 71 41 19 75 34 77 34 2 0 43 18 90 40 47 22 88 40 90 40 2 0 32 13 67 29
35 16 212 95 393 176 182 81 363 162 403 181 41 19 75 34 77 34 2 0 36 15 77
34 84 39 151 69 158 71 30 8 50 18 50 24 0 4 6 8 13 8 6 0 35 10 62 23 57 26
109 49 175 78 25 11 76 34 114 51 38 17 70 30 70 29 3 -7 28 -60 70 -152 26
-54 46 -102 46 -106 0 -19 55 -60 80 -60 35 0 55 19 112 105 100 151 168 251
181 265 8 8 22 30 33 48 10 17 22 32 27 32 4 0 5 5 2 10 -3 6 -1 10 4 10 6 0
11 6 11 14 0 8 4 16 8 18 14 5 152 216 152 232 0 26 -22 63 -44 75 -11 6 -39
13 -61 16 -22 2 -56 7 -75 10 -19 2 -55 7 -80 9 -25 3 -76 10 -115 15 -38 6
-92 13 -120 16 -27 4 -61 8 -75 11 -14 2 -52 7 -85 10 -33 4 -62 8 -66 10 -3
1 -39 6 -80 9 -40 4 -76 8 -79 8 -19 3 -51 -18 -63 -42 -13 -27 -9 -55 20
-121 3 -8 5 -18 5 -22 -1 -5 2 -8 7 -8 9 0 26 -48 23 -62 -1 -5 2 -8 7 -8 10
0 27 -39 23 -53 -1 -4 3 -7 9 -7 5 0 8 -4 4 -9 -3 -5 -1 -12 4 -15 5 -3 14
-19 19 -36 10 -28 9 -31 -21 -44 -18 -8 -67 -30 -110 -50 -44 -20 -80 -36 -82
-36 -2 0 -43 -18 -92 -40 -207 -96 -284 -130 -288 -130 -2 0 -48 -20 -101 -45
-53 -25 -98 -45 -100 -45 -2 0 -32 -13 -66 -29 -35 -16 -142 -64 -238 -106
-96 -43 -208 -93 -248 -111 -40 -19 -77 -32 -81 -29 -5 3 -11 -2 -15 -10 -3
-8 -11 -15 -18 -15 -9 0 -9 3 2 11 12 9 12 10 -3 5 -10 -3 -21 -6 -23 -6 -3 0
-2 -5 2 -12 5 -8 2 -9 -11 -4 -16 6 -16 4 -4 -10 13 -16 12 -16 -8 -6 -17 9
-22 9 -27 -3 -3 -8 -11 -15 -18 -15 -9 0 -9 3 2 11 12 9 12 10 -3 5 -10 -3
-21 -6 -24 -6 -3 0 1 -7 8 -17 13 -15 12 -15 -10 -4 -13 7 -21 9 -17 3 7 -11
-21 -25 -35 -16 -5 3 -9 0 -9 -6 0 -7 -7 -9 -16 -6 -10 4 -13 2 -8 -6 5 -7 2
-9 -9 -5 -12 4 -14 2 -10 -11 5 -13 3 -14 -7 -6 -9 9 -17 7 -32 -8 -11 -11
-28 -18 -38 -15 -11 3 -21 -1 -24 -10 -4 -8 -13 -13 -21 -9 -8 3 -15 1 -15 -5
0 -6 -7 -8 -16 -5 -10 4 -13 2 -8 -6 5 -8 2 -9 -11 -4 -16 6 -16 4 -4 -10 13
-16 12 -16 -10 -5 -13 7 -21 9 -17 3 3 -5 -1 -13 -10 -16 -24 -9 -31 -7 -14 4
8 5 11 10 5 10 -14 0 -43 -20 -30 -20 12 -1 -56 -39 -70 -39 -5 -1 -3 4 5 9
10 7 11 10 2 10 -7 0 -15 -7 -19 -16 -3 -8 -12 -13 -19 -10 -8 3 -13 0 -11 -7
1 -7 -7 -12 -18 -12 -11 0 -25 -6 -31 -14 -6 -8 -18 -11 -28 -8 -11 5 -15 3
-10 -4 4 -7 1 -10 -6 -7 -8 2 -22 -4 -33 -15 -11 -11 -27 -17 -38 -14 -10 3
-17 2 -14 -3 6 -9 -23 -22 -35 -15 -4 3 -11 -2 -14 -11 -4 -10 -13 -13 -26 -9
-14 4 -20 2 -18 -7 2 -8 -6 -13 -19 -12 -12 0 -20 -3 -18 -7 3 -4 -2 -10 -11
-13 -24 -9 -31 -7 -14 4 10 7 11 10 2 10 -7 0 -15 -7 -19 -16 -3 -8 -12 -13
-20 -10 -8 3 -12 2 -9 -3 7 -11 -22 -23 -35 -15 -5 3 -17 0 -26 -6 -16 -10
-16 -11 2 -6 l20 6 -20 -15 c-11 -9 -28 -14 -38 -11 -10 2 -14 0 -10 -7 4 -6
0 -8 -10 -4 -9 3 -18 -1 -21 -10 -4 -9 -14 -13 -26 -10 -13 3 -18 1 -13 -6 4
-7 0 -8 -11 -4 -9 4 -15 3 -12 -2 6 -9 -44 -35 -52 -26 -3 3 1 5 8 5 7 0 11 2
8 5 -8 9 -38 -6 -32 -16 6 -10 -43 -32 -56 -24 -12 8 -41 -6 -34 -16 3 -5 0
-9 -6 -9 -7 0 -10 12 -8 27 3 25 -3 29 -107 70 -182 73 -448 158 -657 209
-109 27 -198 54 -198 59 0 14 39 37 50 30 6 -4 10 -1 10 5 0 6 5 8 12 4 6 -4
8 -3 5 3 -4 6 0 16 8 23 8 7 15 9 15 6 0 -4 10 3 22 14 12 11 29 18 36 15 10
-4 12 0 8 12 -4 10 -4 14 0 10 4 -3 25 8 48 26 22 17 36 26 32 18 -7 -10 -5
-12 3 -7 7 5 10 15 7 23 -3 8 -2 12 3 9 5 -3 14 1 21 10 7 8 19 13 26 10 8 -3
13 -2 12 2 -4 13 61 74 72 67 6 -4 9 -1 8 7 -2 7 3 12 10 10 6 -1 11 4 10 10
-2 7 3 12 10 10 6 -1 11 4 10 10 -2 7 3 12 11 10 9 -2 11 3 7 14 -5 12 -2 15
9 10 9 -3 14 -2 11 3 -6 9 63 87 74 84 4 -1 7 5 8 13 1 7 3 20 4 28 1 8 9 13
19 11 12 -3 16 1 12 11 -3 7 2 17 11 20 9 3 14 9 11 14 -2 4 5 16 15 28 11 12
20 25 20 30 0 4 10 19 23 32 12 14 21 27 21 30 -1 3 2 4 6 3 4 -1 6 7 3 17 -3
11 0 20 6 20 6 0 10 6 9 13 -2 6 2 11 8 10 6 -1 10 8 10 20 -1 13 4 21 12 19
10 -2 10 2 2 18 -7 13 -7 20 0 20 5 0 10 7 10 15 0 7 8 19 18 24 10 6 12 11 4
11 -10 0 -10 5 -2 20 6 11 7 20 3 20 -4 0 -2 5 5 12 7 7 12 22 12 35 0 13 3
23 8 23 6 0 11 28 15 98 1 12 5 22 8 22 13 0 18 29 7 36 -7 5 -8 2 -3 -6 6 -9
4 -11 -4 -5 -9 5 -10 10 -2 18 6 6 11 26 11 44 0 20 5 33 13 33 8 0 7 4 -3 10
-8 5 -11 10 -6 10 5 0 3 6 -3 14 -9 11 -9 16 0 22 8 5 9 3 4 -6 -5 -9 -4 -11
3 -6 9 5 8 12 -1 27 -10 16 -9 21 3 29 12 8 12 10 1 10 -11 0 -11 3 -1 15 11
13 10 14 -6 9 -15 -6 -17 -4 -7 6 8 9 9 20 2 37 -6 17 -6 30 2 39 9 10 8 15
-3 19 -8 3 -15 22 -17 48 -1 23 -6 43 -11 45 -5 2 -6 10 -3 18 3 7 10 11 17 8
6 -3 0 4 -14 16 -14 12 -18 18 -10 14 13 -7 13 -5 2 8 -10 13 -10 17 0 21 7 3
4 6 -7 6 -17 1 -17 3 -5 11 13 8 13 10 -1 10 -12 0 -15 7 -11 25 3 16 0 25 -8
25 -8 0 -10 9 -6 26 4 15 3 23 -2 20 -6 -3 -19 18 -31 47 -12 28 -33 74 -47
101 -14 26 -23 54 -20 62 3 7 0 11 -7 8 -15 -5 -41 51 -31 67 5 8 3 9 -6 4
-10 -6 -12 -4 -7 8 3 9 3 16 -1 16 -25 -4 -34 3 -29 21 3 11 2 18 -3 15 -8 -5
-25 24 -21 38 1 5 -3 6 -8 2 -12 -7 -33 29 -23 40 4 5 -1 5 -11 2 -10 -4 -16
-3 -12 2 3 6 -3 14 -12 20 -10 6 -15 11 -11 11 4 0 -6 13 -23 29 -17 17 -28
35 -24 40 4 7 0 8 -11 4 -13 -5 -16 -3 -11 10 4 12 2 14 -10 10 -12 -5 -15 -2
-10 10 4 12 2 14 -10 10 -12 -5 -15 -2 -11 9 5 11 0 14 -18 12 -13 -1 -22 2
-19 6 3 5 1 11 -5 15 -6 4 -7 11 -4 17 4 7 2 8 -4 4 -14 -8 -53 24 -45 37 3 6
1 7 -6 3 -16 -10 -64 22 -55 36 4 6 3 8 -3 5 -13 -8 -115 42 -108 53 3 5 0 12
-6 16 -8 4 -9 3 -5 -4 10 -16 3 -15 -46 7 -113 51 -130 57 -161 60 -5 1 -5 7
-1 14 5 8 2 8 -9 -2 -15 -12 -21 -9 -19 10 1 4 -8 5 -18 2 -11 -3 -32 -1 -48
5 -15 6 -44 13 -65 17 -25 4 -35 10 -30 18 5 9 3 9 -8 0 -12 -9 -25 -10 -53
-2 -21 6 -47 8 -57 6 -11 -3 -19 0 -19 6 0 8 -29 12 -90 12 -49 0 -90 3 -90 7
0 4 -20 7 -45 6 -25 0 -53 6 -62 13 -11 10 -14 10 -9 2 5 -9 -1 -13 -19 -13
-18 0 -24 4 -19 13 6 8 3 8 -9 -1 -9 -8 -22 -10 -29 -6 -20 13 -39 13 -31 1 4
-6 0 -8 -9 -4 -9 3 -21 0 -28 -6 -7 -7 -10 -7 -7 -1 4 7 -42 10 -151 9 -86 0
-163 3 -169 8 -8 6 -13 6 -13 -1 0 -12 -18 -11 -39 2 -10 7 -12 6 -6 -4 6 -10
4 -12 -8 -7 -10 4 -17 1 -17 -6 0 -8 -3 -7 -9 2 -11 17 -39 23 -47 10 -8 -13
-48 -11 -62 3 -9 9 -12 9 -12 -3 0 -11 -9 -14 -37 -11 -21 2 -44 9 -52 16 -12
9 -13 8 -6 -3 6 -11 2 -13 -23 -8 -20 4 -32 2 -36 -6 -2 -7 -5 -4 -5 7 -1 13
-5 16 -13 9 -7 -5 -26 -8 -43 -7 -16 1 -56 3 -87 5 -32 2 -58 7 -58 11 0 4 -7
5 -15 2 -8 -4 -26 1 -40 10 -16 11 -25 12 -25 5 0 -8 -4 -8 -15 1 -8 6 -19 9
-25 5 -5 -3 -10 1 -10 10 0 9 -5 13 -11 9 -13 -8 -100 36 -93 47 3 5 -2 6 -10
3 -9 -4 -16 -1 -16 6 0 7 -7 10 -15 6 -8 -3 -14 -2 -14 2 3 20 -2 32 -15 32
-12 0 -30 34 -27 53 1 4 -3 6 -8 5 -5 -2 -20 13 -34 33 -19 28 -22 40 -14 49
9 10 9 11 0 6 -6 -3 -14 -2 -18 4 -3 5 -1 10 4 10 6 0 11 5 11 10 0 6 -6 9
-12 8 -8 -2 -13 9 -13 30 0 17 -3 32 -6 32 -12 0 -17 55 -6 62 9 6 9 8 0 8 -7
0 -13 5 -13 11 0 5 6 7 13 3 9 -6 9 -4 1 7 -6 8 -10 23 -7 34 2 11 5 31 7 45
2 14 8 24 13 23 6 -1 8 9 5 22 -3 18 0 25 11 25 10 0 13 6 10 20 -3 11 -1 20
4 20 5 0 15 12 21 26 7 14 17 22 22 19 6 -4 9 -1 8 7 -2 7 2 12 9 11 7 -2 10
3 7 11 -6 16 29 39 41 28 5 -4 5 -2 1 5 -8 15 50 57 66 47 7 -4 10 -4 6 1 -4
4 -3 14 3 22 10 11 15 11 27 1 13 -10 14 -10 8 0 -5 8 3 16 21 24 15 6 31 11
36 10 4 -1 7 2 7 7 0 5 11 8 25 7 14 -2 22 1 18 7 -3 5 0 8 8 5 8 -3 20 2 27
9 11 10 17 11 28 2 8 -7 14 -7 14 -2 0 13 116 32 132 22 6 -4 21 -3 32 3 20
10 20 10 6 -7 -14 -17 -13 -18 3 -8 22 11 67 5 67 -9 0 -6 6 -6 14 1 10 8 16
9 21 1 3 -5 15 -10 26 -10 11 0 18 -4 15 -8 -2 -4 4 -9 15 -10 43 -4 49 -6 49
-15 0 -5 9 -7 20 -4 11 3 18 1 14 -4 -3 -5 0 -9 6 -9 6 0 9 -4 6 -9 -3 -5 2
-8 12 -7 9 0 16 -4 15 -10 -1 -7 5 -10 16 -7 9 2 23 -3 30 -11 8 -9 17 -16 22
-16 14 0 48 -33 43 -41 -2 -4 4 -6 13 -4 10 2 21 4 26 4 4 1 7 8 7 16 0 8 5
15 11 15 6 0 9 7 6 15 -4 8 -1 17 5 21 7 4 8 3 4 -4 -4 -7 -5 -12 -2 -12 3 0
15 18 26 40 11 22 25 40 31 40 6 0 7 5 3 12 -5 8 -2 9 10 5 14 -5 15 -3 6 13
-7 13 -7 21 2 26 7 4 8 3 4 -4 -4 -7 -5 -12 -2 -12 3 0 13 14 21 30 9 17 20
28 24 25 5 -2 8 3 7 13 0 10 5 16 13 14 12 -3 12 0 1 12 -12 15 -5 21 21 18 4
-1 6 6 5 16 0 10 5 16 13 14 10 -2 12 0 4 10 -7 9 -5 18 8 30 9 9 20 14 23 11
3 -3 3 4 1 17 -3 16 0 20 10 16 8 -3 14 -2 14 2 -3 19 2 33 10 28 5 -4 7 4 3
16 -4 16 -2 20 9 16 9 -4 15 1 17 13 5 49 5 49 19 37 8 -6 13 -7 12 -2 -3 20
2 35 10 29 5 -3 13 0 17 6 5 8 3 9 -6 4 -8 -5 -11 -3 -8 6 3 8 10 13 16 12 5
-1 9 5 8 15 0 9 4 16 10 15 7 -1 11 5 10 15 0 9 4 16 10 15 7 -1 11 5 10 15 0
9 4 16 11 15 8 -2 10 4 6 14 -5 12 -3 14 8 8 11 -7 11 -5 -1 10 -9 11 -10 16
-2 11 7 -4 12 -2 12 4 0 6 4 9 8 6 4 -2 8 3 9 12 1 10 3 24 5 32 2 9 -3 14
-11 12 -8 -2 -11 3 -8 12 4 11 1 13 -10 9 -10 -4 -14 -2 -10 4 4 6 -1 10 -11
9 -9 0 -16 5 -15 11 2 7 0 12 -5 12 -19 -3 -33 2 -27 11 3 6 -1 7 -9 4 -9 -4
-16 -1 -16 6 0 7 -8 10 -19 7 -15 -4 -19 0 -16 14 2 11 0 17 -6 13 -5 -3 -16
0 -24 6 -8 6 -20 8 -26 4 -7 -4 -9 -3 -6 3 4 6 -3 13 -14 16 -12 3 -18 10 -14
16 3 7 0 8 -9 5 -8 -3 -28 1 -43 9 -56 30 -103 48 -112 42 -5 -3 -11 -1 -13 5
-4 13 -147 57 -180 56 -15 -1 -24 2 -22 6 3 4 -12 8 -33 8 -22 0 -45 6 -52 13
-11 9 -12 9 -7 0 5 -9 2 -11 -8 -7 -9 3 -13 11 -10 16 4 7 0 7 -12 1 -11 -5
-53 -9 -94 -7 -44 1 -81 -3 -89 -10 -12 -9 -13 -8 -6 3 6 11 4 13 -7 8 -9 -3
-21 0 -28 6 -10 9 -11 9 -6 0 5 -9 -1 -13 -21 -14 -15 0 -37 -2 -47 -4 -45 -8
-82 -9 -95 -1 -9 6 -12 5 -7 -2 9 -15 -16 -21 -39 -9 -17 9 -18 8 -7 -5 10
-13 8 -15 -14 -12 -15 1 -38 -2 -53 -8 -38 -16 -63 -20 -56 -8 3 6 -1 7 -9 4
-9 -3 -13 -10 -10 -15 5 -9 -9 -13 -33 -10 -7 1 -13 -3 -13 -10 0 -7 -10 -9
-25 -7 -13 3 -22 1 -19 -3 3 -5 -2 -9 -11 -9 -10 0 -13 -5 -9 -12 4 -7 3 -8
-5 -4 -7 4 -32 -2 -56 -13 -25 -12 -49 -21 -55 -21 -5 0 -10 -5 -10 -10 0 -7
-6 -7 -20 0 -16 9 -19 8 -13 -6 5 -14 1 -16 -19 -12 -18 3 -25 1 -22 -7 5 -11
-72 -43 -89 -37 -5 1 -5 -3 -1 -9 5 -9 2 -10 -10 -6 -10 4 -15 3 -11 -3 3 -6
-1 -10 -10 -10 -8 0 -18 -7 -22 -16 -3 -10 -13 -14 -25 -10 -11 2 -17 2 -14
-1 6 -7 -32 -43 -46 -43 -5 0 -6 5 -2 12 4 7 3 8 -5 4 -6 -4 -8 -12 -5 -18 9
-14 -17 -29 -41 -23 -11 3 -14 2 -7 -1 16 -8 -37 -56 -55 -50 -8 3 -10 -1 -6
-11 5 -13 2 -15 -11 -10 -9 4 -15 3 -12 -2 8 -12 -21 -34 -33 -26 -7 4 -8 -1
-4 -11 5 -13 3 -16 -10 -11 -12 4 -14 2 -10 -10 5 -12 2 -15 -10 -10 -10 4
-16 2 -14 -6 1 -7 -3 -11 -10 -10 -8 2 -10 -4 -6 -14 5 -12 2 -15 -9 -10 -11
4 -18 -2 -23 -20 -4 -16 -11 -23 -20 -19 -9 3 -12 0 -8 -10 3 -7 0 -14 -6 -14
-6 0 -11 -7 -11 -16 0 -10 -5 -14 -16 -10 -8 3 -13 2 -10 -3 8 -12 -49 -82
-60 -73 -5 4 -2 -2 6 -12 10 -13 10 -17 3 -12 -8 4 -13 2 -13 -4 0 -6 -5 -8
-12 -4 -6 4 -8 3 -4 -4 9 -15 -33 -83 -47 -75 -7 4 -6 -1 2 -10 9 -11 10 -17
2 -17 -6 0 -18 -18 -27 -40 -9 -22 -20 -38 -24 -35 -4 2 -6 -7 -4 -20 1 -14
-2 -25 -7 -25 -6 0 -7 -4 -4 -10 3 -5 1 -10 -4 -10 -6 0 -11 -11 -11 -25 0
-13 -8 -29 -17 -34 -14 -8 -15 -11 -3 -11 12 0 10 -4 -4 -15 -11 -8 -15 -15
-10 -15 5 0 10 -9 10 -20 0 -11 -3 -20 -7 -20 -4 0 -10 -20 -14 -45 -4 -31
-10 -43 -18 -39 -8 5 -9 4 -2 -4 14 -15 6 -94 -8 -85 -6 4 -7 1 -2 -7 11 -17
13 -80 4 -80 -4 0 -5 -12 -2 -27 10 -57 10 -73 -1 -66 -8 5 -8 3 -1 -8 12 -17
13 -39 1 -58 -7 -10 -5 -12 4 -6 9 6 11 -2 8 -34 -2 -28 0 -41 9 -41 9 0 10
-7 3 -26 -7 -16 -7 -23 0 -19 6 3 10 -3 10 -15 0 -12 5 -31 11 -42 6 -11 7
-18 2 -15 -5 3 -10 -4 -10 -16 -2 -17 0 -19 7 -7 7 12 10 9 10 -12 0 -16 5
-28 11 -28 8 0 7 -6 -2 -17 -12 -14 -12 -16 0 -8 11 6 13 3 9 -13 -4 -12 -3
-20 2 -17 7 4 43 -77 40 -91 -1 -4 3 -10 10 -14 6 -4 12 -13 14 -21 1 -8 9
-29 19 -48 9 -18 14 -37 11 -42 -3 -5 1 -9 9 -9 20 0 39 -44 25 -58 -8 -8 -5
-9 11 -5 16 4 21 1 21 -16 0 -11 5 -21 11 -21 5 0 7 -4 4 -10 -3 -5 -1 -10 4
-10 6 0 11 -5 11 -11 0 -5 -5 -7 -12 -3 -7 5 -8 3 -4 -5 5 -7 10 -10 13 -7 10
10 35 -25 29 -41 -5 -13 -4 -14 8 -4 13 11 15 9 11 -8 -2 -12 0 -19 4 -16 13
8 34 -23 25 -37 -6 -10 -4 -10 9 0 14 12 16 11 12 -7 -2 -12 0 -19 4 -17 13 8
52 -43 44 -57 -4 -7 2 -5 12 3 17 14 18 13 13 -8 -4 -12 -2 -20 3 -16 12 7 69
-47 62 -59 -3 -6 -1 -7 4 -4 13 8 55 -27 45 -39 -4 -4 1 -2 11 5 15 12 17 11
17 -3 0 -10 4 -15 9 -12 5 3 12 -2 15 -11 6 -15 8 -15 17 -3 8 12 10 10 6 -8
-3 -12 -1 -20 4 -16 11 7 69 -27 63 -37 -2 -5 4 -6 16 -4 11 2 22 -1 25 -6 4
-5 11 -7 16 -4 5 3 6 0 4 -7 -4 -9 3 -14 16 -15 12 -1 25 -6 28 -11 3 -5 14
-8 24 -6 12 1 17 -2 14 -11 -4 -9 1 -11 15 -7 16 4 19 2 13 -8 -5 -9 -4 -11 4
-6 16 10 53 -3 45 -16 -5 -7 -2 -8 6 -3 11 7 83 -10 105 -25 6 -4 22 -7 38 -6
15 1 27 -1 27 -5 0 -4 13 -6 29 -5 17 1 28 -1 26 -4 -2 -4 35 -13 83 -20 48
-7 90 -18 94 -24 5 -7 8 -7 8 0 0 11 37 11 90 -1 26 -6 31 -4 25 6 -6 11 -5
12 6 2 7 -7 25 -13 39 -13 14 0 32 -6 39 -12 11 -10 13 -10 7 0 -5 8 3 12 28
12 22 0 36 -5 36 -12 0 -7 5 -5 11 5 10 18 11 18 32 0 11 -10 17 -12 13 -5 -4
6 -2 12 3 12 6 0 11 -6 11 -12 0 -8 3 -9 8 -3 8 12 72 14 90 2 6 -5 12 -4 12
1 0 12 34 11 42 -2 5 -8 8 -7 8 1 0 7 7 10 17 6 12 -5 14 -3 9 8 -4 8 0 5 8
-5 9 -11 16 -14 16 -8 0 8 19 12 55 12 37 0 55 -4 55 -12 0 -10 2 -10 9 0 4 8
19 13 32 12 13 -1 29 -1 34 0 6 1 26 1 45 1 19 -1 123 -3 230 -5 107 -2 197
-5 200 -7 9 -4 25 -7 53 -8 20 -1 26 -5 21 -13 -5 -9 -2 -9 9 1 11 8 17 9 17
3 0 -7 7 -9 17 -5 9 4 14 2 11 -3 -3 -5 9 -9 26 -10 18 0 52 -10 76 -22 24
-12 48 -18 54 -15 6 3 8 3 4 -2 -10 -11 20 -38 37 -31 9 3 12 0 8 -10 -3 -9 1
-14 12 -14 9 0 13 -4 10 -10 -3 -5 1 -10 9 -10 9 0 16 -3 16 -8 0 -4 11 -19
23 -32 13 -14 23 -33 21 -43 -1 -9 3 -15 9 -14 6 1 16 -13 22 -31 6 -18 14
-30 17 -27 3 4 5 -7 4 -24 -1 -16 2 -27 7 -24 6 3 8 -7 5 -25 -3 -23 -1 -29
11 -24 9 3 12 1 7 -6 -4 -7 -9 -49 -11 -94 -5 -102 -6 -108 -17 -108 -4 0 -7
-6 -6 -12 2 -7 -3 -12 -11 -10 -12 3 -12 0 -1 -12 9 -12 9 -16 1 -16 -7 0 -10
-4 -7 -8 3 -5 -4 -18 -14 -30 -11 -12 -20 -28 -20 -37 0 -13 -11 -19 -32 -16
-4 0 -5 -9 -3 -21 3 -11 2 -18 -1 -15 -9 8 -45 -33 -39 -43 3 -5 0 -7 -8 -4
-8 3 -17 -2 -21 -11 -4 -11 -12 -15 -22 -11 -14 5 -15 4 -5 -8 11 -13 9 -15
-9 -11 -13 2 -20 2 -16 -2 7 -7 -13 -33 -26 -33 -5 0 -6 5 -2 12 5 7 3 8 -5 4
-7 -5 -10 -10 -7 -13 10 -10 -23 -33 -38 -27 -12 5 -15 2 -9 -12 4 -12 3 -15
-5 -10 -7 4 -12 3 -12 -2 0 -9 -31 -23 -55 -26 -5 -1 -15 -7 -21 -15 -6 -8
-18 -11 -28 -8 -11 5 -15 3 -10 -5 5 -8 2 -9 -10 -5 -11 5 -15 3 -10 -5 5 -7
0 -9 -14 -6 -14 4 -20 2 -15 -5 4 -7 0 -8 -11 -4 -10 4 -15 3 -11 -3 6 -9 2
-12 -27 -14 -7 -1 -19 -7 -27 -14 -11 -10 -16 -10 -29 0 -9 7 -13 8 -9 2 10
-17 -113 -46 -132 -30 -12 8 -13 8 -7 -1 5 -9 0 -13 -16 -14 -13 0 -35 -2 -51
-4 -19 -3 -25 0 -20 8 5 9 3 9 -8 2 -22 -17 -69 -19 -69 -3 0 10 -3 9 -10 -2
-8 -13 -10 -13 -10 -1 0 11 -4 10 -16 -5 -8 -10 -13 -13 -9 -6 4 8 -4 12 -30
12 -26 0 -34 3 -29 13 6 9 4 9 -8 -1 -13 -10 -19 -10 -32 3 -9 9 -16 12 -16 7
0 -14 -122 17 -136 34 -6 8 -14 11 -17 8 -3 -3 -15 -3 -28 1 -17 6 -19 9 -8
16 9 6 4 8 -16 6 -19 -1 -29 2 -28 10 2 7 -4 10 -12 7 -9 -4 -21 -1 -29 5 -7
6 -16 8 -19 4 -4 -3 -7 1 -7 9 0 9 -8 15 -17 14 -11 0 -17 5 -15 13 3 12 1 12
-14 0 -15 -12 -17 -12 -9 0 6 11 3 13 -13 9 -12 -4 -20 -1 -19 5 1 6 -8 16
-20 22 -13 7 -20 14 -17 17 3 3 -3 5 -13 5 -10 -1 -17 4 -15 12 2 8 -3 11 -12
8 -8 -3 -16 -1 -18 5 -3 7 -12 9 -22 5 -9 -4 -14 -11 -11 -17 6 -9 -8 -15 -29
-11 -5 1 -3 -6 5 -15 9 -12 9 -15 2 -10 -8 4 -13 1 -13 -8 0 -9 -3 -16 -7 -16
-5 0 -19 -18 -33 -40 -13 -22 -28 -40 -32 -40 -4 0 -8 -7 -8 -15 0 -8 -5 -15
-12 -15 -6 0 -8 -3 -5 -7 4 -3 -2 -13 -13 -20 -11 -8 -18 -19 -15 -24 6 -8 -8
-13 -27 -10 -4 0 -4 -7 -1 -16 5 -12 3 -14 -7 -8 -8 5 -11 3 -8 -6 4 -13 0
-21 -29 -53 -7 -8 -9 -17 -5 -21 4 -5 -1 -5 -10 -2 -11 4 -15 2 -13 -6 7 -19
-22 -50 -37 -41 -10 6 -10 4 1 -9 11 -14 11 -17 0 -18 -8 -1 -18 -1 -23 0 -5
1 -3 -6 5 -15 12 -16 12 -17 -3 -11 -10 3 -17 3 -17 -1 3 -21 -15 -53 -28 -48
-8 3 -11 2 -8 -4 8 -13 -17 -50 -35 -50 -12 0 -12 -2 -2 -9 11 -7 10 -9 -3
-15 -9 -3 -13 -10 -10 -16 5 -9 -7 -14 -27 -11 -3 0 -5 -7 -3 -17 1 -9 -4 -24
-12 -32 -7 -8 -23 -27 -34 -43 -11 -15 -25 -24 -31 -21 -6 4 -6 -1 1 -13 6
-11 7 -23 3 -27 -3 -4 2 -4 13 0 14 6 17 4 13 -8 -4 -10 -1 -15 10 -14 9 0 16
-5 14 -12 -1 -8 2 -11 8 -7 5 3 20 -3 32 -14 12 -12 27 -21 34 -21 15 0 26
-27 11 -27 -48 -1 -478 -148 -577 -198 -79 -39 -87 -40 -92 -5 -3 17 0 30 6
30 7 0 7 3 0 8 -16 9 -21 43 -10 61 6 9 5 12 -1 8 -13 -8 -23 15 -23 54 0 16
-4 29 -8 29 -4 0 -9 12 -10 27 -1 15 -6 31 -12 37 -6 6 -5 16 1 29 8 14 8 18
0 13 -10 -6 -15 6 -12 27 0 4 -4 7 -9 7 -7 0 -6 8 1 23 12 21 11 21 -7 7 -10
-8 -16 -11 -12 -6 4 5 3 17 -3 27 -6 13 -6 19 1 19 5 0 10 5 10 11 0 5 -4 8
-9 5 -9 -6 -34 46 -34 70 0 8 -4 14 -9 14 -4 0 -8 7 -8 15 0 8 -4 15 -8 15 -5
0 -9 6 -9 13 -1 22 -8 42 -18 49 -5 4 -10 11 -11 15 0 4 -8 26 -19 48 -10 22
-19 45 -21 50 -2 9 -22 54 -96 215 -12 25 -21 51 -21 58 0 6 -4 12 -9 12 -5 0
-6 5 -3 10 3 6 2 10 -4 10 -6 0 -14 12 -17 28 -4 15 -15 42 -25 60 -10 17 -16
32 -13 32 4 0 1 6 -5 13 -6 8 -8 17 -4 20 3 4 1 7 -5 7 -7 0 -12 9 -12 20 0
11 -5 20 -11 20 -7 0 -9 12 -6 33 3 17 3 26 0 20 -2 -7 -9 -13 -14 -13 -6 0
-7 5 -4 10 3 6 1 10 -4 10 -6 0 -10 3 -9 8 3 15 -15 62 -24 62 -5 0 -7 4 -3 9
3 5 -1 16 -9 24 -8 8 -13 17 -10 20 7 7 -18 57 -29 57 -6 0 -8 3 -4 6 3 4 -2
23 -13 44 -11 21 -16 40 -13 44 4 3 1 6 -6 6 -7 0 -9 5 -6 10 3 6 1 10 -4 10
-6 0 -11 12 -11 26 0 14 -4 23 -10 19 -6 -4 -10 5 -10 20 0 15 -4 24 -10 20
-6 -3 -10 4 -10 17 0 13 -7 33 -15 44 -8 12 -11 24 -8 28 3 3 1 6 -5 6 -6 0
-13 13 -17 29 -3 16 -13 35 -21 42 -8 6 -14 18 -14 25 0 8 -4 22 -9 32 -5 9
-13 28 -18 42 -20 50 -38 85 -48 92 -5 4 -7 8 -2 8 4 0 1 14 -8 30 -9 17 -13
30 -10 30 4 0 -1 7 -9 16 -9 8 -14 20 -11 25 4 5 1 9 -4 9 -6 0 -11 6 -11 13
0 7 -16 44 -35 82 -19 38 -32 72 -29 77 3 4 1 8 -4 8 -11 0 -25 37 -23 58 1 6
-2 12 -8 12 -10 0 -35 59 -32 78 1 6 -2 12 -8 12 -5 0 -15 16 -21 35 -6 19
-22 55 -35 79 -18 33 -20 47 -12 56 7 6 8 11 2 10 -21 -5 -36 0 -30 10 3 5 0
20 -7 32 -7 13 -11 27 -10 32 2 5 -1 12 -6 15 -11 8 -55 102 -55 119 0 6 -3
12 -7 12 -4 0 -13 18 -20 40 -7 22 -18 40 -23 40 -6 0 -8 3 -4 6 3 4 -2 23
-13 44 -11 21 -16 40 -13 44 4 3 2 6 -4 6 -15 0 -23 38 -9 44 6 2 0 5 -14 5
-20 1 -22 3 -10 11 10 6 11 10 3 10 -7 0 -13 6 -13 13 0 7 -9 29 -19 49 -11
19 -17 39 -14 42 4 3 1 6 -5 6 -7 0 -12 4 -12 10 0 9 -37 93 -80 182 -16 33
-16 36 -1 32 9 -3 6 1 -6 7 -14 7 -25 25 -29 45 -3 19 -10 34 -14 34 -4 0 -13
18 -20 41 -8 22 -18 43 -23 46 -6 4 -7 1 -2 -7 6 -10 4 -12 -8 -7 -12 4 -14 2
-10 -11 5 -14 3 -15 -7 -5 -11 10 -16 9 -25 -3 -6 -9 -23 -17 -38 -17 -15 -1
-27 -5 -27 -9 0 -13 -61 -40 -76 -34 -10 4 -12 2 -8 -6 5 -8 2 -9 -9 -5 -10 3
-17 2 -17 -4 0 -6 -4 -8 -9 -5 -5 3 -12 -1 -15 -10 -4 -10 -14 -14 -26 -11
-11 3 -18 2 -15 -3 6 -9 -23 -22 -35 -15 -4 3 -11 -2 -14 -11 -4 -10 -14 -14
-26 -11 -14 3 -20 0 -20 -10 0 -10 -6 -14 -20 -10 -11 3 -20 1 -20 -4 0 -4 -7
-5 -17 -2 -12 5 -14 3 -8 -7 6 -10 4 -12 -9 -7 -9 4 -14 3 -11 -2 3 -5 1 -12
-5 -16 -5 -3 -10 0 -10 7 0 8 -5 6 -11 -5 -7 -12 -17 -16 -31 -11 -13 4 -18 2
-14 -4 7 -11 -21 -25 -34 -17 -4 3 -11 -2 -14 -11 -4 -10 -13 -13 -27 -9 -16
5 -19 4 -14 -6 6 -9 3 -11 -10 -5 -16 6 -16 4 -4 -10 13 -16 12 -16 -10 -5
-19 11 -22 11 -16 0 6 -9 3 -11 -8 -6 -10 3 -17 2 -17 -3 0 -5 -7 -6 -17 -3
-12 5 -14 3 -8 -7 6 -10 4 -12 -10 -6 -16 6 -16 4 -4 -10 13 -16 12 -16 -10
-5 -19 11 -22 11 -16 0 6 -9 4 -11 -8 -6 -9 3 -18 0 -21 -9 -3 -8 -11 -14 -18
-14 -9 0 -8 3 2 10 8 5 11 10 5 10 -14 0 -43 -20 -30 -20 6 0 2 -5 -8 -11 -9
-5 -23 -7 -30 -3 -6 4 -9 4 -5 -1 4 -4 0 -14 -10 -21 -16 -12 -16 -13 1 -19 9
-4 17 -15 17 -25 0 -11 5 -22 10 -25 6 -3 10 -15 10 -26 0 -10 4 -19 9 -19 7
0 16 -20 26 -60 0 -3 16 -36 34 -75 33 -70 53 -115 56 -125 0 -3 6 -15 13 -26
6 -12 8 -24 5 -28 -3 -3 -2 -6 4 -6 6 0 14 -10 18 -22 9 -27 6 -21 35 -83 13
-27 24 -52 24 -55 1 -3 14 -32 29 -65 16 -33 29 -68 30 -77 1 -9 4 -15 7 -13
4 2 12 -13 20 -33 7 -20 23 -60 36 -89 13 -28 24 -57 24 -62 0 -6 5 -11 12
-11 6 0 8 -3 5 -7 -4 -3 -3 -11 2 -17 4 -6 27 -55 51 -108 23 -54 46 -98 52
-98 5 0 7 -4 4 -9 -4 -5 7 -39 24 -74 16 -36 30 -70 30 -75 0 -6 6 -17 13 -24
13 -14 38 -75 40 -95 0 -7 3 -13 7 -13 7 0 35 -71 32 -82 -1 -5 2 -8 7 -8 8 0
27 -54 19 -56 -2 0 5 -8 15 -18 9 -10 17 -26 17 -37 0 -10 5 -19 10 -19 6 0
10 -6 10 -12 0 -7 7 -26 15 -42 8 -15 12 -32 9 -37 -3 -5 -1 -9 5 -9 10 0 27
-38 23 -52 -1 -5 3 -8 9 -8 5 0 7 -4 4 -10 -3 -5 -1 -10 4 -10 6 0 11 -6 11
-13 0 -7 8 -31 19 -53 67 -143 69 -149 59 -162 -8 -9 -7 -11 5 -7 11 5 19 -4
28 -32 7 -21 12 -41 11 -45 -1 -5 2 -8 7 -8 7 0 22 -29 36 -70 3 -10 38 -86
51 -111 7 -14 11 -29 7 -33 -3 -3 -2 -6 4 -6 6 0 14 -10 18 -22 4 -13 8 -25
10 -28 1 -3 9 -21 17 -40 9 -19 14 -38 12 -42 -3 -5 -1 -8 4 -8 10 0 36 -58
33 -72 0 -5 3 -8 9 -8 5 0 10 -8 10 -18 0 -10 4 -22 8 -28 4 -5 28 -54 51
-109 24 -55 59 -131 77 -169 18 -38 31 -73 28 -78 -3 -4 -2 -8 3 -8 4 0 14
-15 21 -32 8 -18 21 -50 29 -70 9 -20 13 -44 9 -53 -3 -9 -2 -14 3 -11 4 3 13
-6 19 -19 7 -15 8 -26 2 -30 -6 -4 -10 -12 -10 -18 0 -8 3 -8 9 1 13 21 21
-21 8 -43 -7 -13 -6 -16 2 -11 11 7 15 -5 12 -33 -2 -7 2 -10 7 -7 14 8 2 -37
-12 -46 -7 -5 -7 -8 2 -8 10 0 13 -14 11 -53 -1 -28 -5 -54 -9 -57 -3 -3 -10
-23 -16 -45 -6 -24 -15 -39 -23 -37 -7 1 -10 -2 -7 -7 10 -16 -16 -62 -31 -57
-8 3 -12 2 -9 -3 3 -5 -1 -14 -9 -21 -8 -7 -12 -17 -8 -24 4 -6 -1 -5 -10 3
-15 12 -17 12 -10 -4 5 -15 3 -17 -12 -11 -11 4 -16 4 -12 0 8 -8 -11 -34 -25
-34 -5 0 -6 5 -2 12 4 7 3 8 -5 4 -6 -4 -9 -11 -6 -16 8 -12 -33 -32 -48 -24
-6 4 -9 4 -5 -1 4 -4 3 -14 -3 -22 -9 -10 -15 -11 -26 -1 -11 9 -13 8 -11 -3
2 -8 -3 -13 -9 -11 -7 1 -13 -2 -13 -8 0 -5 -7 -10 -15 -10 -8 0 -15 -5 -15
-10 0 -7 -7 -7 -21 1 -13 7 -19 7 -15 1 3 -6 2 -13 -4 -17 -5 -3 -10 -1 -10 5
0 7 -6 6 -15 -3 -16 -17 -89 -30 -155 -29 -62 1 -62 1 -54 15 4 6 -2 4 -12 -5
-19 -17 -21 -17 -41 2 -12 11 -23 15 -25 11 -2 -5 -27 0 -56 11 -29 11 -50 23
-48 26 2 4 -8 8 -22 9 -15 0 -28 6 -30 12 -2 6 -10 11 -18 11 -8 0 -14 6 -14
13 0 8 -4 7 -10 -3 -8 -12 -10 -10 -10 10 0 20 -2 22 -10 10 -9 -13 -14 -8
-11 12 0 4 -9 5 -20 3 -15 -3 -19 0 -15 10 3 9 0 12 -10 8 -8 -3 -14 1 -14 11
0 9 -6 13 -15 10 -8 -4 -17 1 -21 10 -3 9 -10 13 -15 10 -5 -3 -9 -1 -9 5 0
10 -38 27 -52 23 -4 -1 -5 5 -2 13 5 11 0 14 -19 13 -15 -1 -23 -7 -20 -15 6
-15 -21 -45 -32 -35 -4 4 -6 2 -4 -3 6 -27 -57 -119 -75 -108 -6 4 -5 -1 3
-10 13 -17 7 -22 -21 -18 -4 0 -5 -6 -2 -14 4 -8 1 -15 -6 -15 -6 0 -8 -5 -4
-12 5 -8 2 -9 -10 -5 -10 4 -15 3 -11 -4 9 -13 -23 -61 -35 -54 -6 3 -7 -1 -4
-9 3 -9 2 -16 -4 -16 -5 0 -12 -9 -15 -21 -3 -12 -10 -18 -16 -14 -7 3 -8 0
-5 -9 3 -9 1 -16 -6 -16 -6 0 -9 -4 -6 -9 3 -5 -1 -11 -9 -15 -8 -3 -15 -13
-15 -22 0 -11 -5 -14 -16 -10 -14 5 -15 4 -4 -9 12 -15 4 -20 -22 -16 -4 0 -4
-7 -1 -16 4 -10 2 -14 -4 -10 -6 4 -10 -1 -9 -11 0 -9 -4 -16 -11 -15 -7 2
-10 -4 -7 -12 4 -8 -1 -17 -10 -21 -9 -3 -13 -10 -10 -15 3 -5 0 -9 -6 -9 -6
0 -8 -5 -5 -10 5 -9 -7 -14 -26 -12 -4 1 -6 -6 -5 -16 0 -10 -5 -16 -13 -14
-11 2 -12 0 -2 -11 9 -12 8 -16 -5 -21 -9 -4 -14 -12 -10 -22 3 -8 2 -13 -2
-10 -9 6 -42 -29 -42 -44 0 -6 -5 -10 -11 -10 -5 0 -7 -5 -3 -12 5 -7 2 -9 -8
-6 -8 4 -15 1 -15 -7 0 -7 5 -11 11 -9 14 5 92 -64 88 -79 -2 -7 1 -7 10 1 11
8 17 6 26 -9 7 -10 19 -19 27 -19 8 0 15 -3 15 -7 0 -10 62 -47 73 -45 4 1 7
-2 7 -7 0 -5 12 -12 26 -15 16 -4 24 -12 21 -20 -4 -10 1 -12 15 -8 16 4 19 2
13 -9 -7 -11 -5 -11 10 1 11 9 16 10 11 3 -5 -9 -1 -13 13 -13 10 0 21 -5 23
-10 2 -6 13 -12 25 -13 12 0 20 -3 18 -6 -5 -4 83 -38 118 -46 42 -9 57 -17
51 -27 -4 -5 4 -5 16 2 19 10 22 10 18 -1 -4 -11 6 -14 39 -14 28 0 48 -6 53
-15 6 -8 10 -10 10 -4 0 12 36 12 47 -1 5 -4 2 -5 -6 0 -10 5 -12 4 -7 -4 4
-6 13 -8 19 -4 16 10 81 3 86 -8 1 -6 10 -2 18 8 8 10 12 13 9 6 -5 -8 11 -11
55 -10 33 1 63 -1 66 -6 2 -4 9 -5 14 -1 6 3 26 6 45 6 19 0 31 4 28 9 -6 11
25 0 45 -15 11 -8 13 -8 8 1 -9 15 5 24 21 14 9 -5 3 -34 -24 -110 -37 -108
-89 -279 -98 -321 -2 -14 -16 -74 -30 -135 -14 -60 -35 -181 -48 -267 -12 -86
-26 -152 -30 -145 -6 9 -8 9 -8 -1 0 -15 -66 -45 -80 -37 -6 4 -10 1 -10 -5 0
-6 -4 -9 -9 -6 -5 3 -12 -1 -15 -10 -4 -10 -14 -14 -26 -11 -11 3 -18 2 -15
-2 7 -12 -63 -41 -80 -35 -9 4 -15 3 -14 -2 5 -27 -1 -34 -21 -24 -14 8 -20 8
-20 0 0 -6 -4 -8 -10 -5 -5 3 -10 1 -10 -5 0 -7 -7 -9 -16 -6 -10 4 -13 2 -8
-6 5 -8 2 -9 -11 -4 -16 6 -16 4 -4 -10 13 -16 12 -16 -8 -6 -31 17 -79 -4
-60 -26 10 -13 9 -14 -10 -3 -20 10 -22 9 -16 -6 6 -16 5 -16 -10 -4 -12 9
-17 10 -17 2 0 -7 -4 -9 -10 -6 -5 3 -10 2 -10 -4 0 -6 -7 -8 -15 -4 -9 3 -15
2 -14 -3 5 -28 -1 -35 -22 -23 -17 9 -20 8 -14 -2 6 -9 3 -11 -8 -6 -10 3 -17
2 -17 -3 0 -5 -7 -6 -17 -3 -12 5 -14 3 -8 -7 6 -10 4 -12 -9 -7 -11 5 -15 3
-10 -5 5 -8 2 -9 -11 -4 -14 5 -16 4 -6 -7 9 -12 5 -14 -22 -12 -19 2 -40 -1
-48 -7 -11 -8 -10 -9 4 -4 36 11 15 -3 -40 -29 -31 -14 -63 -23 -70 -20 -8 2
-12 1 -9 -4 7 -11 -22 -23 -35 -15 -5 3 -9 0 -9 -6 0 -7 -7 -9 -16 -6 -10 4
-13 2 -8 -6 5 -8 2 -9 -10 -5 -9 4 -15 3 -12 -2 7 -11 -22 -23 -35 -15 -5 3
-17 0 -26 -6 -16 -10 -16 -11 2 -6 20 6 20 6 0 -9 -11 -9 -26 -14 -35 -13 -8
2 -23 -5 -32 -14 -10 -10 -24 -18 -31 -18 -6 1 -1 7 13 15 30 17 21 20 -14 4
-14 -7 -23 -17 -19 -22 4 -6 0 -8 -11 -4 -11 5 -15 3 -10 -5 5 -8 2 -9 -9 -5
-10 3 -17 2 -17 -3 0 -5 -7 -6 -17 -3 -12 5 -14 3 -8 -7 6 -10 4 -12 -9 -7
-11 5 -15 3 -10 -5 5 -8 2 -9 -10 -5 -9 4 -15 3 -12 -2 8 -12 -20 -22 -41 -14
-12 5 -14 3 -8 -7 6 -10 4 -12 -8 -7 -10 4 -16 2 -14 -6 1 -7 -9 -12 -23 -12
-38 -1 -71 -15 -64 -27 5 -8 1 -9 -10 -5 -11 5 -15 3 -10 -4 4 -7 1 -10 -6 -7
-8 2 -22 -4 -33 -15 -11 -11 -27 -17 -38 -14 -10 3 -17 2 -14 -3 6 -10 -24
-22 -36 -14 -5 3 -9 1 -9 -5 0 -6 -7 -8 -15 -4 -10 3 -15 0 -13 -8 2 -9 -5
-14 -19 -13 -12 0 -19 -4 -16 -9 4 -6 -1 -8 -10 -4 -10 3 -17 2 -17 -3 0 -5
-7 -6 -17 -3 -10 4 -14 2 -10 -4 7 -12 -40 -36 -54 -28 -5 4 -9 2 -9 -4 0 -6
-7 -7 -17 -4 -12 5 -14 3 -8 -7 6 -10 4 -12 -9 -7 -9 4 -14 3 -11 -2 3 -5 1
-12 -5 -16 -5 -3 -10 0 -10 7 0 9 -3 9 -10 -2 -5 -8 -10 -11 -10 -6 0 6 -6 1
-14 -9 -8 -11 -19 -16 -30 -12 -9 4 -15 3 -12 -2 7 -11 -22 -23 -35 -15 -5 3
-9 0 -9 -6 0 -6 -4 -9 -9 -6 -14 9 -42 -5 -34 -17 4 -7 0 -8 -12 -3 -16 6 -16
4 -4 -11 13 -15 12 -15 -5 -6 -15 8 -23 6 -38 -9 -12 -12 -28 -18 -39 -15 -10
3 -17 2 -14 -2 2 -5 -7 -13 -21 -20 -30 -13 -45 -14 -24 -1 8 5 11 10 5 10
-14 0 -36 -15 -38 -26 -1 -5 -10 -9 -19 -8 -10 0 -18 -3 -18 -8 0 -5 -4 -7 -9
-4 -5 3 -12 -1 -15 -10 -4 -10 -14 -14 -26 -11 -13 3 -18 1 -13 -6 4 -6 0 -8
-10 -4 -12 4 -14 2 -10 -11 5 -13 3 -14 -7 -5 -9 8 -17 6 -32 -9 -12 -12 -28
-18 -39 -15 -10 3 -17 2 -14 -2 5 -9 -45 -34 -53 -26 -3 3 1 5 8 5 7 0 11 2 8
5 -8 8 -39 -6 -33 -15 6 -10 -24 -22 -36 -14 -5 3 -17 0 -26 -6 -16 -10 -16
-11 2 -5 14 4 17 3 10 -4 -6 -6 -21 -12 -35 -13 -13 -2 -32 -11 -43 -21 -11
-11 -27 -17 -38 -14 -12 3 -17 1 -12 -6 4 -7 0 -8 -11 -4 -9 4 -15 3 -12 -2 3
-4 -6 -13 -20 -20 -30 -13 -45 -14 -24 -1 8 5 11 10 5 10 -15 0 -37 -16 -35
-26 0 -5 -7 -10 -17 -12 -11 -2 -14 0 -7 5 8 6 5 17 -7 38 -20 32 -26 27 -8
-8 10 -22 10 -22 -6 -2 -9 11 -14 28 -12 37 3 9 -2 19 -10 22 -8 4 -13 13 -9
21 3 8 1 15 -4 15 -5 0 -6 8 -3 18 6 15 5 16 -12 2 -17 -14 -18 -14 -6 8 10
19 9 22 -5 22 -12 0 -15 6 -10 26 4 15 3 23 -3 20 -11 -7 -23 22 -14 36 3 6 1
8 -4 5 -12 -7 -57 88 -48 102 2 5 -2 12 -11 15 -10 4 -13 13 -9 27 4 13 3 19
-2 16 -11 -7 -36 40 -28 53 3 4 -2 11 -11 14 -10 4 -14 14 -11 26 3 11 0 18
-7 17 -6 -1 -11 8 -10 21 0 12 -3 22 -7 22 -5 0 -5 7 -2 17 5 12 3 14 -7 8
-10 -6 -12 -4 -7 9 5 11 3 15 -5 10 -8 -5 -9 -2 -5 10 5 11 3 15 -5 10 -7 -5
-9 -2 -5 9 3 9 0 18 -9 21 -8 3 -14 11 -14 18 0 9 3 8 10 -2 5 -8 10 -10 10
-5 0 14 -20 43 -20 30 0 -5 -7 1 -15 15 -8 14 -12 32 -10 40 3 8 0 22 -6 30
-9 13 -10 12 -5 -3 4 -11 2 -16 -5 -11 -6 3 -9 15 -6 25 3 12 1 17 -6 12 -7
-4 -8 0 -4 11 4 9 3 15 -2 12 -10 -7 -44 71 -36 84 3 4 -2 10 -10 14 -8 3 -15
11 -15 18 0 9 3 9 11 -2 9 -12 10 -12 5 3 -3 10 -6 21 -6 23 0 3 -5 2 -10 -1
-11 -7 -33 42 -25 56 4 5 1 17 -5 26 -11 17 -11 17 -6 0 4 -11 2 -16 -5 -11
-6 3 -9 14 -6 24 4 14 1 17 -12 12 -14 -5 -14 -4 -1 13 12 15 12 17 1 10 -11
-6 -13 -4 -8 8 3 10 2 17 -4 17 -6 0 -7 4 -4 10 3 5 1 18 -4 27 -6 10 -11 14
-11 8 -1 -12 -39 56 -39 70 0 6 6 -1 14 -15 17 -30 20 -21 3 14 -9 22 -14 24
-26 13 -13 -10 -14 -9 -3 12 7 13 9 21 3 17 -13 -8 -23 19 -15 41 4 10 2 14
-4 10 -13 -8 -26 20 -16 35 3 6 1 8 -4 5 -12 -8 -26 20 -17 34 3 5 1 9 -5 9
-6 0 -7 7 -4 17 4 10 2 14 -4 10 -11 -7 -36 40 -28 53 3 4 -2 11 -11 14 -10 4
-14 14 -11 26 3 11 1 18 -3 15 -5 -3 -11 -1 -15 5 -3 5 0 10 7 10 9 0 9 3 -2
10 -8 5 -11 10 -6 10 6 0 1 6 -9 14 -11 8 -16 19 -12 30 5 11 3 15 -5 10 -7
-5 -9 -2 -5 9 4 12 2 14 -11 10 -15 -6 -15 -5 -3 10 8 11 9 17 3 17 -7 0 -9 7
-5 17 4 10 2 14 -4 10 -12 -7 -36 40 -28 54 4 5 1 9 -5 9 -6 0 -8 5 -5 10 3 6
1 10 -5 10 -7 0 -9 7 -6 16 4 10 2 13 -6 8 -8 -5 -9 -2 -5 10 5 11 3 15 -5 10
-7 -5 -9 -2 -5 9 3 9 -1 18 -10 21 -9 4 -13 14 -10 26 3 11 2 18 -3 15 -9 -6
-22 23 -15 35 3 4 -2 11 -11 14 -10 4 -14 14 -11 26 3 13 1 18 -6 13 -7 -4 -8
0 -3 12 6 16 4 16 -10 4 -16 -13 -16 -12 -6 8 9 17 9 22 -3 27 -8 3 -15 11
-15 18 0 9 3 9 11 -2 9 -12 10 -12 5 3 -3 10 -6 21 -6 23 0 3 -5 2 -12 -2 -8
-5 -9 -2 -5 10 5 11 3 15 -5 10 -7 -5 -9 -2 -5 9 3 9 -1 18 -10 21 -8 4 -13
13 -9 21 3 8 1 15 -5 15 -6 0 -8 7 -5 16 4 10 2 13 -6 8 -8 -5 -9 -2 -4 11 6
16 4 16 -10 4 -16 -13 -16 -12 -5 9 9 16 9 27 1 40 -10 15 -11 15 -5 -3 5 -15
3 -17 -5 -9 -7 7 -13 24 -13 38 -1 14 -8 28 -16 31 -7 3 -10 12 -7 20 3 8 1
15 -5 15 -6 0 -8 7 -5 16 4 10 2 13 -6 8 -8 -5 -9 -2 -5 10 4 9 3 15 -2 12
-12 -8 -45 70 -36 85 5 7 4 10 -2 6 -12 -8 -26 20 -17 34 3 5 1 9 -5 9 -6 0
-7 7 -4 17 4 10 2 14 -4 10 -13 -8 -58 87 -48 104 5 7 4 10 -2 6 -6 -4 -15 5
-22 19 -13 30 -14 45 -1 24 7 -10 10 -11 10 -2 0 7 -7 15 -16 19 -8 3 -13 12
-10 20 4 9 2 11 -6 7 -8 -5 -9 -2 -5 10 4 9 3 14 -2 11 -12 -7 -24 31 -15 46
5 8 3 9 -6 4 -10 -6 -12 -4 -7 9 4 9 3 14 -2 11 -5 -3 -12 -1 -16 5 -3 5 -1
10 4 10 6 0 2 9 -9 20 -11 11 -20 26 -20 33 0 8 4 7 10 -3 5 -8 10 -10 10 -5
0 14 -15 36 -26 38 -5 1 -9 10 -8 20 0 9 -3 17 -7 17 -5 0 -6 7 -2 15 3 10 0
15 -8 13 -9 -2 -14 5 -13 19 0 12 -3 20 -6 18 -4 -2 -12 7 -19 21 -16 35 -13
44 4 14 17 -30 20 -21 4 14 -7 14 -17 23 -22 19 -7 -4 -8 1 -3 12 6 16 4 16
-11 4 -15 -13 -15 -12 -6 5 8 15 6 23 -9 38 -12 12 -18 28 -15 39 3 12 1 17
-6 12 -6 -4 -8 0 -4 10 3 9 -1 18 -10 21 -9 4 -13 14 -10 26 3 13 1 18 -6 13
-7 -4 -8 0 -4 11 4 9 3 15 -2 12 -10 -7 -24 22 -16 34 3 4 -2 11 -11 14 -10 4
-14 14 -11 26 3 11 2 18 -3 15 -4 -3 -11 2 -14 11 -9 24 -7 31 4 14 7 -10 10
-11 10 -2 0 7 -6 15 -14 18 -9 3 -12 12 -9 21 5 12 3 14 -7 8 -10 -6 -12 -4
-7 8 4 11 2 14 -7 11 -8 -3 -17 0 -22 7 -4 7 -3 10 4 5 6 -3 13 -2 16 3 3 5
-1 11 -9 15 -8 3 -15 11 -15 18 0 9 3 9 11 -2 9 -12 10 -12 5 3 -3 10 -6 21
-6 23 0 3 -5 2 -12 -2 -8 -5 -9 -2 -5 10 5 11 3 15 -5 10 -8 -5 -9 -2 -4 11 6
16 4 16 -10 4 -16 -13 -16 -12 -6 8 9 17 9 22 -3 27 -8 3 -15 11 -15 18 0 9 3
9 11 -2 9 -12 10 -12 5 3 -3 10 -6 20 -6 23 0 2 -8 0 -17 -3 -16 -6 -17 -5 -3
12 8 10 10 16 4 12 -13 -8 -27 19 -18 34 3 5 1 9 -5 9 -6 0 -7 7 -4 17 5 12 3
14 -7 8 -10 -6 -12 -4 -7 9 4 9 3 15 -2 12 -12 -8 -35 50 -25 65 5 8 3 9 -6 4
-10 -6 -12 -4 -7 9 5 11 3 15 -5 10 -8 -5 -9 -2 -5 10 5 13 3 17 -6 13 -8 -3
-14 3 -15 16 -1 18 1 19 9 7 9 -12 10 -12 5 3 -3 10 -6 21 -6 23 0 3 -5 2 -12
-2 -8 -5 -9 -2 -4 11 6 16 4 16 -10 4 -16 -13 -16 -12 -5 10 11 19 11 22 0 16
-9 -6 -11 -3 -6 8 3 10 2 17 -3 17 -5 0 -6 7 -3 17 4 10 2 14 -4 10 -10 -7
-48 62 -38 71 3 3 5 -1 5 -8 0 -7 2 -11 5 -8 10 9 -7 38 -18 31 -7 -4 -8 0 -3
12 6 16 4 16 -10 4 -16 -13 -16 -12 -5 10 7 13 9 21 3 17 -13 -8 -46 69 -37
85 5 7 4 10 -2 6 -14 -9 -37 48 -27 64 4 7 3 10 -3 6 -12 -7 -26 20 -18 33 3
4 -2 11 -11 14 -10 4 -13 13 -9 27 5 13 3 19 -3 15 -11 -7 -25 21 -17 34 3 4
-2 11 -11 14 -10 4 -14 14 -11 26 3 11 2 18 -3 15 -9 -6 -22 23 -15 35 3 4 -2
11 -11 14 -9 4 -14 13 -10 21 3 8 1 15 -5 15 -6 0 -8 7 -5 16 4 10 2 13 -6 8
-8 -5 -9 -2 -5 9 4 12 1 17 -11 17 -13 0 -14 2 -4 9 11 7 10 9 -3 15 -11 4
-14 12 -10 27 5 15 4 19 -4 15 -10 -7 -13 -3 -15 26 -1 7 -9 21 -19 31 -11 11
-17 27 -14 38 3 10 2 17 -3 14 -10 -6 -22 24 -14 36 3 5 0 17 -6 26 -11 17
-11 17 -6 0 4 -11 2 -16 -5 -11 -6 3 -9 15 -6 25 3 11 2 17 -3 14 -10 -6 -22
24 -14 36 3 5 -3 9 -13 10 -10 0 -13 3 -5 6 6 2 12 9 12 14 0 6 -5 7 -12 3 -8
-5 -9 -2 -4 11 6 16 4 16 -10 4 -16 -13 -16 -12 -5 10 11 19 11 22 0 16 -9 -6
-11 -3 -6 8 3 10 2 17 -3 17 -5 0 -6 7 -3 17 5 12 3 14 -7 8 -10 -6 -12 -4 -7
9 5 11 3 15 -5 10 -8 -5 -9 -2 -5 10 5 11 3 15 -5 10 -7 -5 -9 -2 -5 9 3 9 0
18 -9 21 -8 3 -14 11 -14 18 0 9 3 8 10 -2 5 -8 10 -10 10 -5 0 14 -20 43 -20
30 0 -5 -7 1 -15 15 -8 14 -12 33 -8 44 4 13 2 16 -8 11 -9 -6 -11 -3 -6 9 5
11 3 15 -5 10 -8 -5 -9 -2 -5 10 5 11 3 15 -5 10 -7 -5 -9 -2 -5 9 3 9 0 18
-9 21 -8 3 -14 11 -14 18 0 9 3 8 10 -2 5 -8 10 -10 10 -5 0 15 -16 37 -26 36
-5 -1 -9 7 -9 17 0 9 -6 21 -13 25 -8 5 -10 17 -6 29 4 15 3 18 -7 13 -9 -6
-11 -3 -6 9 4 9 3 14 -2 11 -5 -3 -12 -1 -16 5 -3 5 0 10 7 10 8 0 6 5 -4 11
-10 5 -18 15 -18 22 0 7 4 6 10 -3 5 -8 10 -10 10 -5 0 14 -20 43 -20 30 -1
-12 -39 56 -39 70 -1 6 4 3 9 -5 5 -8 10 -10 10 -5 0 15 -16 37 -26 36 -5 -1
-9 7 -9 17 0 9 -6 21 -13 25 -8 5 -10 17 -6 29 4 15 3 18 -7 13 -9 -6 -11 -3
-5 10 6 16 4 16 -10 4 -16 -13 -16 -12 -5 10 7 13 9 21 3 17 -11 -7 -25 21
-16 35 3 5 0 17 -6 26 -11 17 -11 17 -6 1 10 -34 -3 -17 -24 28 -23 54 -26 70
-5 34 8 -14 14 -19 15 -12 0 6 -9 21 -20 32 -12 12 -18 26 -14 32 4 6 3 8 -3
5 -14 -9 -24 18 -16 40 5 12 3 14 -7 8 -10 -6 -12 -4 -7 9 5 11 3 15 -5 10 -8
-5 -9 -2 -5 10 4 9 3 15 -2 12 -10 -7 -24 22 -16 34 3 4 -2 11 -11 14 -10 4
-14 14 -11 26 3 11 2 18 -3 15 -11 -7 -21 22 -13 42 4 10 2 14 -4 10 -13 -8
-26 20 -16 35 3 6 1 8 -4 5 -12 -7 -26 20 -18 33 3 4 -2 11 -11 14 -10 4 -14
14 -11 26 3 13 1 18 -6 13 -7 -4 -8 0 -4 11 4 9 3 15 -2 12 -12 -8 -22 20 -14
41 5 12 3 14 -7 8 -10 -6 -12 -4 -7 8 3 9 3 16 -1 16 -19 -3 -25 2 -12 11 10
6 11 10 3 10 -17 0 -46 58 -39 76 3 8 2 13 -3 10 -9 -6 -35 44 -26 52 3 3 5
-1 5 -8 0 -7 2 -11 5 -8 9 8 -6 38 -16 33 -5 -3 -15 11 -24 31 -19 45 -19 57
0 24 8 -14 14 -20 14 -15 0 22 -25 52 -41 50 -14 -3 -15 1 -8 20 7 17 5 25 -6
29 -8 3 -14 11 -14 18 0 9 3 8 10 -2 7 -10 10 -11 10 -2 0 7 -6 15 -14 18 -9
3 -12 12 -9 21 5 12 3 14 -7 8 -10 -6 -12 -4 -7 9 4 9 3 15 -2 12 -9 -6 -45
73 -37 81 2 3 -5 14 -15 24 -14 14 -18 27 -13 41 4 15 3 18 -7 13 -9 -6 -11
-3 -6 9 5 11 3 15 -5 10 -8 -5 -9 -2 -5 9 3 10 2 17 -4 17 -6 0 -7 5 -4 10 3
6 2 10 -4 10 -6 0 -7 8 -4 18 6 15 5 16 -12 2 -17 -14 -18 -14 -6 8 7 13 8 22
2 22 -15 0 -43 59 -37 76 3 8 2 13 -3 10 -12 -8 -22 20 -14 41 4 11 3 14 -5 9
-11 -7 -14 -3 -16 27 -1 6 -9 20 -19 30 -12 12 -16 25 -11 39 4 13 2 18 -4 14
-11 -7 -25 21 -16 35 3 5 0 9 -6 9 -6 0 -9 4 -6 9 3 5 -1 11 -9 15 -8 3 -15
11 -15 18 0 9 3 8 10 -2 5 -8 10 -10 10 -5 0 14 -15 36 -26 38 -5 1 -9 10 -8
20 0 9 -3 17 -7 17 -5 0 -6 7 -2 15 3 10 0 15 -8 13 -9 -2 -14 5 -13 19 0 12
-4 19 -9 16 -6 -4 -8 1 -4 10 3 10 2 17 -4 17 -6 0 -8 4 -4 9 3 5 -4 12 -15
16 -17 5 -18 10 -9 27 9 16 8 19 -2 13 -9 -6 -11 -3 -6 8 3 10 2 17 -4 17 -6
0 -7 4 -4 10 3 5 1 18 -5 27 -10 16 -11 16 -6 -2 l6 -20 -15 20 c-9 11 -14 28
-12 37 3 9 -2 19 -10 22 -10 4 -12 13 -8 27 5 15 4 19 -4 15 -12 -8 -35 40
-26 55 4 5 1 17 -5 26 -10 16 -11 16 -6 -2 l6 -20 -15 20 c-9 11 -14 28 -12
37 3 9 -1 19 -9 22 -8 3 -14 11 -14 18 0 9 3 8 10 -2 5 -8 10 -10 10 -5 0 14
-15 36 -26 38 -5 1 -9 10 -8 19 0 14 -2 15 -14 5 -13 -10 -14 -9 -3 11 8 15 8
22 1 22 -6 0 -8 4 -5 10 3 5 1 18 -5 27 -11 17 -11 17 -6 0 4 -11 2 -16 -5
-11 -6 3 -9 15 -6 25 3 12 0 19 -10 19 -11 0 -14 7 -9 26 5 19 4 24 -5 18 -9
-5 -10 -2 -5 11 6 16 4 16 -10 4 -16 -13 -16 -12 -5 10 7 13 9 21 3 17 -11 -7
-25 21 -16 35 3 5 1 9 -5 9 -6 0 -7 7 -4 17 5 12 3 14 -7 8 -10 -6 -12 -4 -7
9 4 9 3 14 -2 11 -5 -3 -12 -1 -16 5 -3 5 0 10 7 10 9 0 9 3 -2 10 -8 5 -11
10 -6 10 6 0 1 6 -9 14 -11 8 -16 20 -12 29 3 9 3 16 -1 16 -19 -3 -25 2 -12
11 11 7 11 10 2 10 -7 0 -10 4 -7 10 3 5 1 18 -5 27 -11 17 -11 17 -6 0 4 -11
2 -16 -5 -11 -6 3 -9 15 -6 25 3 11 1 17 -3 14 -5 -3 -11 -1 -15 5 -3 5 0 10
7 10 8 0 6 5 -4 11 -10 5 -18 15 -18 22 0 8 4 6 11 -3 9 -12 10 -12 5 3 -3 10
-6 21 -6 23 0 3 -5 2 -12 -2 -8 -5 -9 -2 -5 10 4 9 3 14 -2 11 -5 -3 -12 -1
-16 5 -3 5 0 10 7 10 8 0 6 5 -5 11 -12 7 -16 17 -11 31 4 15 3 18 -7 13 -9
-6 -11 -3 -6 8 4 10 2 16 -6 14 -7 -1 -12 8 -11 21 0 12 -3 22 -7 22 -5 0 -5
7 -2 17 5 12 3 14 -7 8 -10 -6 -12 -4 -7 8 4 10 2 16 -6 14 -7 -1 -12 7 -12
18 0 11 -8 28 -18 38 -11 11 -17 27 -14 38 3 10 2 17 -2 14 -9 -5 -34 45 -26
53 3 3 5 -1 5 -8 0 -7 2 -11 5 -8 10 9 -7 38 -18 31 -7 -4 -8 0 -3 12 6 16 4
16 -10 4 -16 -13 -16 -12 -6 8 9 17 9 22 -4 27 -11 4 -13 13 -9 27 5 13 3 19
-3 15 -11 -7 -25 21 -16 35 3 5 -3 9 -13 9 -14 0 -15 2 -4 9 16 11 6 31 -16
31 -13 0 -14 2 -2 17 12 14 12 16 0 8 -11 -6 -13 -4 -8 8 3 9 0 18 -9 21 -11
4 -13 13 -9 27 4 13 3 19 -2 16 -11 -7 -36 40 -28 53 3 4 -2 11 -11 14 -10 4
-14 14 -11 26 3 11 1 18 -4 14 -9 -5 -11 0 -13 29 -1 6 -7 17 -13 22 -7 6 -14
21 -15 35 -3 21 1 25 20 23 16 -2 21 1 16 9 -5 7 -2 9 9 5 12 -4 14 -2 10 11
-6 15 -5 16 12 2 17 -14 18 -13 11 5 -6 16 -5 17 5 8 10 -10 15 -9 24 3 6 9
23 17 38 17 15 1 29 8 32 15 2 6 10 12 17 12 9 0 8 -3 -2 -10 -10 -7 -11 -10
-2 -10 7 0 15 7 19 16 3 8 12 13 20 10 9 -4 11 -1 7 5 -4 7 -1 10 6 7 8 -2 22
4 33 15 11 11 27 17 38 14 10 -3 17 -2 14 3 -6 9 23 22 35 15 4 -3 11 2 14 11
4 10 14 14 26 11 13 -3 18 -1 13 6 -4 7 0 8 11 4 11 -5 15 -3 10 5 -5 7 -2 9
9 5 9 -3 18 1 21 10 4 9 14 13 26 10 13 -3 18 -1 13 6 -4 7 0 8 11 4 9 -4 15
-3 12 2 -8 12 20 22 39 15 9 -4 18 1 21 11 4 9 13 14 21 11 9 -4 11 -2 7 6 -5
8 -2 9 10 5 9 -4 15 -3 12 2 -7 11 50 35 64 26 6 -3 10 -3 9 2 -3 20 2 27 11
13 7 -11 10 -11 10 -2 0 7 5 10 10 7 6 -3 10 -1 10 5 0 7 7 9 16 6 10 -4 13
-2 8 6 -5 8 -2 9 10 5 9 -4 14 -3 11 2 -3 5 -1 12 5 16 5 3 10 1 10 -4 0 -6 9
-2 21 10 13 13 29 19 40 16 17 -5 18 -3 7 10 -12 15 -11 15 11 4 19 -11 22
-11 16 0 -6 9 -4 11 8 6 9 -3 18 1 21 10 4 9 14 13 26 10 13 -3 18 -1 13 6 -4
7 0 8 11 4 9 -4 15 -3 12 2 -8 12 20 22 41 14 12 -5 14 -3 8 7 -6 10 -4 12 9
7 11 -5 15 -3 10 5 -5 8 -2 9 11 4 14 -5 16 -4 6 7 -9 12 -5 14 22 12 19 -2
40 1 48 7 11 7 9 8 -6 3 -15 -5 -17 -3 -9 5 7 7 24 13 38 13 14 1 26 6 26 10
0 5 4 5 10 2 5 -3 18 -1 27 5 16 10 16 11 1 6 -12 -3 -15 -1 -11 9 4 11 10 12
25 4 16 -9 19 -8 13 2 -6 9 -4 11 8 6 9 -3 18 0 21 9 3 8 11 14 18 14 9 0 9
-3 -2 -11 -12 -9 -12 -10 3 -5 10 3 21 6 23 6 3 0 3 4 0 9 -7 11 69 45 83 36
7 -4 10 -1 9 7 -2 7 6 13 17 13 11 0 28 8 37 18 10 9 24 17 30 17 9 0 8 -4 -2
-11 -12 -9 -12 -10 3 -5 10 3 21 6 23 6 3 0 2 5 -2 12 -5 8 -2 9 10 5 11 -5
15 -3 10 5 -5 8 -2 9 9 5 10 -3 17 -2 17 4 0 6 5 7 10 4 6 -3 10 -2 10 4 0 6
7 7 17 4 12 -5 14 -3 8 7 -6 10 -4 12 10 6 14 -5 16 -4 6 7 -9 12 -5 14 24 11
19 -1 33 1 30 6 -7 11 24 22 37 13 6 -3 8 -1 5 4 -7 12 20 26 33 18 4 -3 11 2
14 11 3 8 14 14 23 12 10 -2 28 7 42 20 13 12 27 20 30 17 3 -4 -1 -11 -9 -16
-12 -9 -12 -10 3 -5 10 3 21 6 23 6 3 0 2 5 -2 12 -5 8 -2 9 11 4 16 -6 16 -4
4 10 -13 16 -12 16 10 4 20 -10 23 -10 19 2 -4 9 2 14 15 16 18 1 19 -1 7 -9
-12 -9 -12 -10 3 -5 10 3 21 6 23 6 3 0 2 5 -2 12 -5 8 -2 9 10 5 13 -5 17 -3
13 6 -4 10 2 14 16 13 12 -1 30 7 40 17 11 11 27 17 38 14 10 -3 17 -2 14 3
-7 11 22 21 42 13 12 -5 14 -3 8 7 -6 10 -4 12 8 7 9 -3 16 -3 16 1 -3 19 2
25 11 12 6 -10 10 -11 10 -3 0 17 58 46 76 39 8 -3 13 -2 10 3 -6 9 44 35 52
26 3 -3 -1 -5 -8 -5 -7 0 -11 -2 -8 -5 8 -8 39 6 33 15 -3 5 -1 11 5 15 5 3
10 1 10 -4 0 -6 9 -2 21 10 11 11 27 18 35 15 8 -3 14 -1 14 5 0 6 7 8 16 5
10 -4 13 -2 8 6 -5 8 -2 9 10 5 9 -4 15 -3 12 2 -3 5 8 14 24 20 18 6 28 6 25
1 -3 -6 1 -7 9 -4 8 3 13 14 11 27 -4 21 -4 22 10 3 8 -11 15 -14 15 -7 0 7 4
10 9 7 5 -3 12 1 15 10 4 10 14 14 26 11 13 -3 18 -1 13 6 -4 7 0 8 11 4 9 -4
15 -3 12 2 -8 12 70 45 85 36 7 -5 10 -4 6 2 -7 11 42 38 51 28 3 -3 -1 -5 -8
-5 -7 0 -11 -2 -8 -5 8 -9 38 6 32 16 -6 10 45 33 54 24 3 -3 -1 -5 -8 -5 -7
0 -10 -3 -6 -7 4 -4 15 3 25 16 10 13 29 24 44 24 15 1 29 8 32 15 3 9 13 11
26 7 16 -5 19 -4 14 6 -6 9 -3 11 9 6 11 -5 15 -3 10 5 -5 8 -2 9 10 5 9 -4
15 -3 12 2 -8 12 41 32 61 24 12 -5 14 -3 8 7 -6 10 -4 12 10 6 14 -5 15 -4 7
7 -11 13 -10 14 52 20 13 1 22 6 18 11 -3 5 2 6 12 3 11 -5 15 -3 10 5 -5 8
-2 9 9 5 10 -3 17 -2 17 4 0 6 4 7 10 4 5 -3 18 -1 27 5 16 10 16 11 -2 5 -14
-4 -17 -3 -10 4 6 6 22 12 35 13 14 2 30 9 36 17 6 8 18 11 28 8 11 -5 15 -3
10 5 -5 8 -2 9 10 5 9 -4 15 -3 12 2 -7 10 22 24 34 16 13 -8 60 17 53 28 -4
6 0 8 10 4 9 -3 18 1 21 10 4 9 14 13 26 10 13 -3 18 -1 13 6 -4 7 0 8 11 4 9
-4 15 -3 12 2 -7 11 22 23 35 15 5 -3 17 0 26 6 17 11 17 11 0 6 -11 -4 -16
-2 -11 5 3 6 14 9 24 6 14 -4 17 -1 12 12 -5 14 -4 14 12 2 13 -11 19 -12 29
-2 9 10 8 11 -8 6 -14 -5 -13 -2 5 9 28 17 53 21 30 5 -12 -9 -12 -10 3 -5 10
3 21 6 23 6 3 0 2 5 -2 12 -5 8 -2 9 11 4 16 -6 16 -4 4 10 -13 16 -12 16 8 5
14 -7 23 -8 23 -2 0 6 7 8 15 4 10 -3 15 0 13 8 -2 9 5 14 20 13 13 0 22 5 22
14 0 10 7 12 26 8 15 -4 23 -3 20 3 -7 11 22 23 36 14 6 -3 8 -1 5 4 -8 13 18
24 37 17 8 -3 19 4 26 16 8 15 18 20 31 17 11 -3 16 -1 13 5 -4 6 1 8 12 4 11
-3 26 -1 34 5 13 9 12 10 -3 5 -11 -4 -16 -2 -11 5 3 6 15 9 25 6 11 -3 17 -2
14 2 -2 5 7 13 21 20 30 13 45 14 24 1 -8 -5 -10 -10 -5 -10 14 0 36 15 38 26
1 5 10 9 19 8 9 0 14 4 11 9 -4 6 1 8 10 4 10 -3 17 -2 17 3 0 5 7 6 17 3 12
-5 14 -3 8 7 -6 10 -4 12 9 7 11 -5 15 -3 10 5 -5 7 -2 9 9 5 12 -4 14 -2 10
11 -6 15 -5 15 10 3 11 -8 17 -9 17 -3 0 7 7 9 17 5 10 -4 14 -2 10 4 -3 5 10
17 29 26 38 19 58 22 34 7 -10 -7 -11 -10 -2 -10 7 0 15 7 19 16 3 8 12 13 20
10 9 -4 11 -2 7 6 -5 7 -2 9 9 5 12 -4 14 -2 10 11 -3 9 -3 14 2 10 4 -4 21 0
37 8 16 9 36 13 44 10 8 -3 13 -2 10 2 -3 5 11 16 30 25 42 21 59 22 24 2 -14
-8 -20 -14 -15 -14 14 0 62 28 50 29 -5 0 1 7 15 15 14 8 33 12 44 8 11 -3 16
-1 12 5 -7 11 21 25 34 17 4 -3 11 2 14 11 4 9 13 13 23 10 10 -3 25 -1 33 5
13 9 12 10 -3 5 -11 -4 -16 -2 -11 5 3 6 15 9 25 6 11 -3 17 -2 14 2 -2 5 7
13 21 20 30 13 45 14 24 1 -8 -5 -10 -10 -5 -10 13 0 37 16 36 24 -3 18 0 20
9 6 7 -11 10 -11 10 -2 0 7 4 11 9 8 5 -3 12 1 15 10 4 10 14 14 26 11 13 -3
18 -1 13 6 -4 7 0 8 11 4 13 -5 17 -3 13 6 -5 14 1 16 47 20 13 1 22 5 19 10
-4 7 1 9 30 11 6 1 20 9 30 19 11 11 27 17 38 14 17 -5 18 -3 7 11 -11 14 -11
14 6 5 15 -8 23 -6 38 9 12 12 28 18 39 15 10 -3 17 -2 14 2 -2 5 7 13 21 20
30 13 45 14 24 1 -8 -5 -10 -10 -5 -10 14 0 36 15 38 26 1 5 10 9 19 8 9 0 15
3 13 7 -7 11 52 32 66 23 7 -4 10 -3 6 3 -7 12 20 26 33 18 4 -3 11 2 14 11 4
10 14 14 26 11 13 -3 18 -1 13 6 -4 6 0 8 10 4 10 -3 17 -2 17 4 0 6 4 8 9 5
5 -3 12 1 15 10 4 10 14 14 26 11 13 -3 18 -1 13 6 -4 7 0 8 11 4 9 -4 15 -3
12 2 -6 9 44 35 52 26 3 -3 -1 -5 -8 -5 -7 0 -11 -2 -8 -5 8 -8 39 6 33 15 -6
9 23 22 35 15 4 -3 11 2 14 11 4 10 13 13 27 9 13 -5 19 -3 15 3 -7 12 22 25
37 15 7 -4 8 0 3 12 -5 15 -4 16 9 5 10 -8 15 -9 15 -2 0 7 7 9 17 5 12 -5 14
-3 8 7 -6 10 -4 12 9 7 11 -5 15 -3 10 5 -5 8 -2 9 11 4 16 -6 16 -4 4 10 -13
16 -12 16 9 5 13 -7 22 -8 22 -2 0 6 7 7 17 4 10 -4 14 -2 10 4 -8 12 20 26
34 17 5 -3 9 3 10 13 0 10 3 13 5 6 4 -8 12 -5 26 9 11 11 28 18 39 15 10 -3
17 -2 14 3 -7 11 22 21 42 13 12 -5 14 -3 8 7 -6 10 -4 12 8 7 10 -4 16 -2 14
6 -1 7 8 12 20 11 12 0 19 4 16 9 -4 6 0 8 10 4 9 -3 18 1 21 10 4 9 14 13 26
10 11 -3 18 -2 15 3 -6 10 24 22 36 14 5 -3 9 -1 9 5 0 6 7 8 15 4 10 -3 15 0
13 8 -2 9 5 14 19 13 12 0 19 4 16 9 -4 6 1 8 10 4 10 -3 17 -2 17 3 0 5 7 6
17 3 12 -5 14 -3 8 7 -6 10 -4 12 9 7 11 -5 15 -3 10 5 -5 8 -2 9 11 4 16 -6
16 -4 4 10 -13 16 -12 16 9 5 13 -7 22 -8 22 -2 0 6 7 7 17 4 10 -4 14 -2 10
4 -8 13 20 26 35 16 6 -3 8 -1 5 4 -7 11 91 59 100 50 2 -3 14 4 25 15 11 11
28 18 39 15 10 -3 17 0 16 6 -1 6 7 12 18 14 17 4 18 2 5 -7 -13 -10 -12 -11
3 -6 10 3 21 6 23 6 3 0 2 5 -2 12 -5 8 -2 9 10 5 10 -4 15 -3 11 3 -7 12 42
33 56 25 5 -4 17 -1 26 5 16 10 16 11 -2 5 -15 -5 -17 -3 -9 5 7 7 24 13 38
13 16 1 26 8 26 17 0 12 2 12 9 2 6 -11 10 -10 15 3 4 11 13 15 26 12 13 -3
18 -1 13 6 -4 7 0 8 12 3 16 -6 16 -4 4 10 -13 16 -12 16 8 6 17 -10 22 -9 27
4 4 10 14 14 25 11 15 -4 18 -1 13 12 -5 14 -4 14 11 2 12 -9 17 -10 17 -2 0
7 4 9 10 6 5 -3 22 1 37 9 32 17 23 22 -10 5 -22 -10 -22 -10 -2 6 11 9 28 14
38 11 9 -2 15 -1 12 4 -7 11 22 21 40 13 10 -3 15 0 13 8 -2 9 5 14 19 13 12
0 20 3 18 6 -2 4 7 12 21 19 30 13 45 14 24 1 -8 -5 -10 -10 -5 -10 13 0 43
20 30 20 -5 0 13 13 40 28 38 22 54 26 64 18 11 -8 13 -8 7 2 -4 7 -2 13 6 13
7 1 20 3 28 4 8 1 21 3 28 4 6 0 11 7 10 14 -2 7 6 12 19 11 12 0 19 4 16 9
-4 6 0 8 10 4 9 -3 18 1 21 10 4 9 14 13 26 10 13 -3 18 -1 13 6 -4 6 0 8 10
4 10 -3 17 -2 17 4 0 6 4 8 9 5 5 -3 12 1 15 10 4 10 14 14 26 11 11 -3 18 0
17 7 -1 6 8 11 21 10 12 0 22 3 22 7 0 5 7 5 17 2 12 -5 14 -3 8 7 -6 10 -4
12 10 6 16 -6 16 -4 4 10 -13 16 -12 16 10 5 13 -7 21 -9 17 -3 -7 11 21 25
35 16 5 -3 17 0 26 6 16 10 16 11 -2 5 -15 -5 -17 -3 -9 5 7 7 24 13 38 13 14
1 26 6 26 10 0 5 4 5 10 2 5 -3 18 -1 27 5 17 11 17 11 0 6 -11 -4 -16 -2 -11
5 3 6 15 9 25 6 11 -3 17 -1 14 3 -3 5 -1 11 5 15 5 3 10 0 10 -7 0 -8 5 -6
11 5 7 12 17 16 31 11 13 -4 18 -2 14 4 -7 12 22 25 36 15 6 -3 8 -1 5 4 -9
14 18 24 40 16 12 -5 14 -3 8 7 -6 10 -4 12 9 7 11 -5 15 -3 10 5 -5 8 -2 9
10 5 11 -5 15 -3 10 5 -5 8 -2 9 9 5 10 -3 17 -2 17 4 0 6 5 7 10 4 6 -3 10
-2 10 4 0 6 7 7 17 4 10 -4 14 -2 10 4 -7 12 40 36 54 28 5 -4 9 -2 9 4 0 6 7
7 17 4 12 -5 14 -3 8 7 -6 10 -4 12 10 6 16 -6 16 -4 4 10 -13 16 -12 16 9 5
13 -7 22 -8 22 -2 0 6 7 7 17 4 12 -5 14 -3 8 7 -6 10 -4 12 8 7 10 -4 16 -2
14 6 -1 7 8 12 21 11 12 0 22 3 22 7 0 14 61 41 76 35 10 -4 12 -2 8 6 -5 8
-2 9 9 5 10 -4 17 -2 17 4 0 6 7 8 16 5 10 -4 13 -2 8 6 -5 8 -2 9 10 5 11 -5
15 -3 10 5 -5 8 -2 9 10 5 9 -4 15 -3 12 2 -8 12 20 22 41 14 10 -4 14 -2 10
4 -7 12 20 26 33 18 4 -3 11 2 14 11 4 10 13 13 27 9 16 -5 19 -4 14 6 -6 9
-3 11 9 6 11 -5 15 -3 10 5 -5 7 -2 9 9 5 10 -4 14 -2 11 7 -5 12 1 15 50 19
13 1 22 5 20 8 -5 9 26 20 37 13 5 -3 9 0 9 6 0 6 4 8 10 5 5 -3 18 -1 27 5
17 11 17 11 1 6 -32 -10 -19 5 17 20 20 8 40 12 45 9 6 -3 18 -1 27 5 16 10
16 11 -2 5 -14 -4 -17 -3 -10 4 6 6 22 12 35 13 14 2 30 9 36 17 6 8 18 11 28
8 9 -4 14 -3 11 2 -7 12 31 25 45 16 5 -3 10 -12 10 -18 0 -7 -4 -6 -11 3 -9
12 -10 12 -5 -3 3 -10 6 -21 6 -23 0 -3 5 -2 12 2 8 5 9 2 5 -10 -5 -11 -3
-15 5 -10 8 5 9 2 5 -9 -4 -12 -1 -17 11 -17 15 0 15 -2 2 -10 -9 -6 -11 -10
-3 -10 7 0 10 -7 6 -17 -4 -10 -2 -14 4 -10 12 7 26 -20 18 -33 -3 -4 2 -11
11 -14 10 -4 13 -13 9 -27 -5 -16 -4 -19 6 -14 9 6 11 3 6 -9 -5 -11 -3 -15 5
-10 8 5 9 2 4 -11 -5 -14 -4 -16 7 -6 12 9 14 5 11 -24 -1 -23 1 -33 9 -28 7
4 8 0 4 -11 -5 -11 -3 -15 5 -10 8 5 9 2 5 -10 -4 -9 -3 -15 2 -12 4 3 13 -6
20 -20 16 -35 13 -44 -4 -14 -17 30 -20 21 -4 -14 7 -14 17 -23 22 -19 6 4 8
0 4 -11 -4 -9 -3 -15 2 -12 11 7 23 -22 15 -35 -3 -5 -1 -9 5 -9 6 0 7 -7 4
-17 -4 -10 -2 -14 4 -10 12 7 26 -20 18 -33 -3 -4 2 -10 10 -14 8 -3 15 -11
15 -18 0 -9 -3 -9 -11 2 -9 12 -10 12 -5 -3 3 -10 6 -21 6 -23 0 -3 5 -2 12 2
8 5 9 2 4 -11 -6 -16 -4 -16 10 -4 16 13 16 12 5 -10 -11 -19 -11 -22 0 -16 9
6 11 3 6 -8 -4 -12 -1 -17 11 -18 10 0 12 -3 5 -6 -7 -2 -13 -9 -13 -14 0 -6
4 -8 9 -5 10 7 33 -42 26 -55 -4 -5 -2 -9 4 -9 6 0 7 -7 4 -17 -4 -10 -2 -14
4 -10 11 7 36 -40 28 -53 -3 -4 2 -11 11 -14 10 -4 14 -14 11 -26 -3 -12 -1
-18 5 -14 6 4 8 -1 4 -14 -4 -11 -2 -23 3 -27 7 -4 9 1 5 12 -5 17 -5 17 6 0
6 -9 9 -21 6 -26 -11 -17 5 -40 22 -33 15 5 16 4 2 -13 -8 -10 -10 -16 -4 -12
13 8 27 -19 18 -34 -3 -5 0 -17 6 -26 10 -16 11 -16 6 2 l-6 20 15 -20 c9 -11
14 -28 11 -37 -2 -10 0 -18 5 -18 12 0 41 -68 34 -79 -3 -5 2 -12 11 -15 10
-4 13 -13 9 -27 -5 -15 -4 -19 4 -15 6 4 15 -4 21 -19 13 -33 13 -44 0 -25 -6
9 -10 10 -10 3 0 -7 9 -17 21 -24 14 -7 19 -17 16 -30 -3 -10 -2 -17 3 -14 10
6 22 -24 14 -36 -3 -5 0 -9 6 -9 12 0 54 -90 45 -98 -3 -3 -5 1 -5 8 0 7 -2
11 -5 8 -8 -8 6 -39 15 -33 11 7 22 -24 13 -37 -3 -6 -1 -8 4 -5 14 9 37 -48
27 -64 -5 -8 -3 -9 6 -4 10 6 12 4 7 -9 -4 -9 -3 -15 2 -12 4 3 13 -6 20 -20
13 -30 14 -45 1 -24 -7 10 -10 11 -10 2 0 -7 7 -15 16 -19 8 -3 13 -12 10 -20
-3 -8 -2 -11 3 -8 5 3 12 1 16 -5 3 -5 0 -10 -7 -10 -8 0 -6 -5 5 -11 12 -7
16 -17 11 -31 -4 -13 -2 -18 4 -14 5 3 12 0 15 -7 3 -6 13 -29 22 -50 9 -22
11 -36 6 -32 -7 3 -8 0 -5 -10 5 -13 9 -13 22 -3 14 12 14 10 3 -11 -7 -13 -9
-21 -3 -17 11 7 25 -21 16 -35 -3 -5 0 -17 6 -26 10 -16 11 -16 6 2 l-6 20 15
-20 c9 -11 14 -28 12 -37 -3 -9 2 -19 10 -22 9 -4 12 -13 8 -26 -4 -14 -2 -20
7 -18 8 2 13 -6 12 -19 0 -13 3 -23 7 -23 5 0 5 -7 2 -17 -5 -12 -3 -14 7 -8
10 6 12 4 7 -9 -5 -11 -3 -15 5 -10 8 5 9 2 5 -10 -5 -11 -3 -15 5 -10 8 5 9
2 5 -9 -3 -10 -2 -17 4 -17 6 0 7 -4 4 -10 -3 -5 -2 -10 4 -10 6 0 8 -7 5 -15
-5 -12 -2 -14 12 -8 17 6 18 5 4 -12 -12 -15 -12 -17 -1 -10 11 6 13 4 8 -9
-4 -9 -3 -15 2 -12 5 3 12 -1 15 -10 9 -24 7 -31 -4 -14 -7 10 -10 11 -10 2 0
-7 7 -15 16 -19 8 -3 13 -12 10 -20 -3 -8 -2 -12 3 -9 11 7 23 -22 15 -35 -3
-5 -1 -9 5 -9 6 0 7 -7 4 -17 -5 -12 -3 -14 7 -8 10 6 12 4 6 -10 -6 -16 -4
-16 10 -4 16 13 16 12 5 -10 -7 -13 -9 -21 -3 -17 13 8 23 -19 15 -39 -3 -10
0 -15 8 -13 9 2 14 -5 13 -19 0 -13 3 -23 8 -23 5 0 6 -4 3 -10 -3 -5 -1 -10
5 -10 6 0 8 -4 5 -10 -3 -5 -1 -10 5 -10 7 0 9 -7 6 -16 -4 -9 -2 -13 5 -8 7
4 10 1 7 -6 -2 -8 4 -22 14 -32 10 -10 18 -24 18 -30 0 -9 -4 -8 -11 2 -9 12
-10 12 -5 -3 3 -10 6 -21 6 -23 0 -3 5 -2 12 2 8 5 9 2 4 -11 -5 -14 -4 -16 7
-6 12 9 14 5 11 -24 -1 -22 2 -34 9 -32 7 1 12 -8 11 -20 0 -13 3 -23 8 -23 5
0 6 -4 3 -10 -3 -5 -1 -10 5 -10 6 0 8 -4 5 -10 -3 -5 -1 -18 5 -27 11 -17 11
-17 6 0 -4 11 -2 16 5 11 6 -3 9 -15 6 -25 -3 -11 -2 -17 3 -14 11 7 43 -71
35 -86 -5 -7 -4 -10 2 -6 12 8 26 -20 17 -34 -3 -5 -1 -9 5 -9 6 0 7 -7 4 -17
-5 -12 -3 -14 7 -8 10 6 12 4 7 -9 -5 -11 -3 -15 5 -10 8 5 9 2 5 -10 -5 -11
-3 -15 5 -10 8 5 9 2 5 -9 -3 -10 -2 -17 4 -17 6 0 8 -4 5 -9 -11 -17 5 -40
22 -33 15 5 16 4 2 -13 -12 -15 -12 -17 -1 -10 11 6 13 4 8 -8 -3 -10 -2 -17
3 -17 14 0 42 -60 36 -76 -3 -8 -1 -14 5 -14 6 0 7 -4 4 -10 -3 -5 -1 -18 5
-27 11 -17 11 -17 6 0 -4 11 -2 16 5 11 6 -3 9 -14 6 -24 -4 -14 -1 -17 12
-12 14 5 14 4 2 -11 -8 -11 -9 -17 -3 -17 7 0 9 -7 5 -17 -4 -10 -2 -14 4 -10
13 8 26 -20 16 -35 -3 -6 -1 -8 4 -5 13 8 24 -18 17 -37 -3 -8 4 -19 16 -26
14 -8 20 -18 17 -30 -3 -11 1 -21 10 -24 8 -4 13 -13 10 -20 -3 -8 1 -17 10
-20 9 -4 13 -14 10 -26 -3 -11 -1 -18 4 -14 5 3 9 3 9 0 0 -2 3 -13 6 -23 5
-15 4 -15 -5 -3 -7 10 -11 11 -11 3 0 -7 9 -17 21 -24 13 -7 19 -17 16 -29 -3
-11 1 -21 10 -24 9 -4 13 -14 10 -26 -3 -13 -1 -18 6 -13 7 4 8 0 4 -11 -5
-11 -3 -15 5 -10 8 5 9 2 5 -10 -4 -9 -3 -15 2 -12 12 8 45 -70 35 -86 -5 -9
-2 -8 11 2 17 14 18 14 8 -4 -8 -15 -6 -23 9 -38 12 -12 18 -28 15 -39 -3 -10
-2 -17 3 -14 10 6 22 -24 14 -36 -3 -5 0 -9 6 -9 6 0 8 -4 5 -10 -3 -5 -1 -10
5 -10 7 0 9 -7 6 -16 -4 -10 -2 -13 6 -8 8 5 9 2 4 -11 -6 -16 -4 -16 10 -4
16 13 16 12 6 -8 -10 -17 -9 -22 4 -27 10 -4 14 -14 11 -26 -3 -13 -1 -18 6
-13 7 4 8 0 4 -11 -5 -11 -3 -15 5 -10 7 5 9 2 5 -9 -3 -9 1 -18 10 -21 9 -4
13 -14 10 -26 -3 -13 -1 -18 6 -13 7 4 8 0 4 -11 -4 -9 -3 -15 2 -12 11 7 23
-22 15 -35 -3 -5 0 -17 6 -26 10 -16 11 -16 5 2 -5 15 -3 17 5 9 7 -7 13 -24
13 -38 1 -14 8 -28 15 -31 6 -2 12 -10 12 -17 0 -9 -3 -9 -11 2 -9 12 -10 12
-5 -3 3 -10 6 -21 6 -23 0 -3 5 -2 12 2 8 5 9 2 4 -11 -6 -16 -4 -16 10 -4 16
13 16 12 6 -8 -9 -17 -9 -22 4 -27 11 -4 13 -13 9 -27 -5 -16 -4 -19 6 -14 9
6 11 4 6 -8 -3 -9 0 -18 9 -21 10 -4 13 -13 9 -25 -4 -14 0 -23 15 -31 15 -8
20 -18 17 -32 -4 -13 -1 -18 7 -15 13 5 15 -1 19 -47 1 -13 6 -22 11 -18 5 3
6 -2 3 -12 -5 -11 -3 -15 5 -10 8 5 9 2 5 -9 -8 -22 2 -49 16 -40 6 4 8 0 4
-10 -4 -11 -2 -14 7 -11 8 3 17 0 22 -7 4 -7 3 -10 -4 -5 -6 3 -13 2 -16 -3
-3 -5 1 -11 9 -15 8 -3 15 -11 15 -18 0 -9 -3 -9 -11 2 -9 12 -10 12 -5 -3 3
-10 6 -21 6 -23 0 -3 5 -2 12 2 8 5 9 2 5 -10 -5 -11 -3 -15 5 -10 8 5 9 2 5
-10 -5 -11 -3 -15 5 -10 8 5 9 2 5 -9 -3 -10 -2 -17 4 -17 6 0 7 -4 4 -10 -3
-5 -2 -10 4 -10 6 0 7 -8 4 -17 -6 -15 -4 -16 9 -6 13 11 15 9 13 -17 -1 -17
2 -30 7 -30 5 0 6 -4 3 -10 -3 -5 -2 -10 4 -10 6 0 7 -7 4 -17 -4 -10 -2 -14
5 -9 6 3 13 2 17 -4 3 -5 1 -10 -4 -10 -6 0 -2 -9 9 -20 11 -11 20 -26 20 -32
0 -9 -4 -8 -11 2 -9 12 -10 12 -5 -3 3 -10 6 -21 6 -24 0 -3 7 1 17 8 15 13
15 12 4 -10 -7 -13 -9 -21 -3 -18 10 7 36 -42 27 -51 -3 -3 -5 1 -5 8 0 7 -2
11 -5 8 -10 -9 7 -38 18 -31 6 4 8 0 4 -11 -5 -11 -3 -15 5 -10 8 5 9 2 5 -10
-4 -9 -3 -15 2 -12 10 6 25 -24 16 -32 -3 -3 -5 1 -5 8 0 7 -2 11 -5 8 -8 -8
6 -39 15 -33 11 7 22 -24 13 -37 -3 -6 -1 -8 4 -5 14 9 24 -18 16 -40 -5 -12
-3 -14 7 -8 10 6 12 4 7 -9 -4 -11 -3 -15 4 -10 7 4 9 0 5 -14 -4 -11 -2 -23
3 -27 7 -4 9 1 5 12 -3 10 2 7 10 -7 17 -28 21 -53 5 -30 -9 12 -10 12 -5 -3
3 -10 6 -21 6 -23 0 -3 5 -2 12 2 8 5 9 1 5 -12 -7 -18 -7 -18 8 0 17 22 20
14 5 -14 -7 -14 -6 -20 6 -24 10 -4 14 -14 11 -26 -3 -13 -1 -18 6 -13 7 4 8
0 4 -11 -4 -9 -3 -15 2 -12 12 8 35 -50 25 -65 -5 -8 -3 -9 6 -4 10 6 12 4 7
-9 -5 -11 -3 -15 5 -10 8 5 9 2 5 -10 -4 -9 -3 -14 2 -11 5 3 12 1 16 -5 3 -5
1 -10 -6 -10 -8 0 -6 -5 4 -12 9 -7 18 -24 19 -37 2 -14 11 -33 21 -44 11 -11
17 -27 14 -38 -3 -12 -1 -17 6 -12 7 4 8 0 4 -11 -4 -9 -3 -15 2 -12 11 7 23
-22 15 -35 -3 -5 -1 -9 5 -9 6 0 7 -7 4 -17 -5 -12 -3 -14 7 -8 10 6 12 4 7
-8 -4 -12 -1 -17 11 -18 9 0 12 -3 5 -5 -8 -4 -5 -12 9 -26 11 -11 18 -28 15
-39 -3 -10 -2 -17 3 -14 10 6 22 -24 14 -36 -3 -5 0 -17 6 -26 11 -17 11 -17
6 0 -4 11 -2 16 5 11 6 -3 9 -15 6 -25 -3 -11 -2 -17 3 -14 10 6 22 -24 14
-36 -3 -5 3 -9 13 -10 10 0 13 -3 6 -6 -7 -2 -13 -9 -13 -14 0 -6 4 -8 9 -5
10 6 34 -42 26 -54 -3 -4 2 -11 11 -14 10 -4 14 -14 11 -26 -3 -12 -1 -18 5
-14 6 4 9 1 6 -6 -2 -8 4 -22 14 -32 13 -13 17 -26 12 -40 -3 -12 -2 -18 3
-15 14 9 34 -39 26 -60 -5 -12 -3 -14 7 -8 10 6 12 4 7 -9 -4 -10 -3 -15 3
-11 11 7 33 -42 25 -55 -8 -13 6 -40 18 -33 6 4 8 0 4 -11 -5 -11 -3 -15 5
-10 8 5 9 2 5 -10 -4 -9 -3 -15 2 -12 10 6 25 -24 16 -32 -3 -3 -5 1 -5 8 0 7
-2 11 -5 8 -10 -9 7 -38 18 -31 7 4 8 0 3 -12 -6 -16 -4 -16 10 -4 16 13 16
12 5 -10 -7 -13 -9 -21 -3 -17 5 3 13 -1 16 -10 9 -24 7 -31 -4 -14 -5 8 -10
11 -10 5 0 -14 15 -36 26 -38 5 -1 9 -10 8 -19 0 -10 3 -18 8 -18 5 0 6 -4 3
-10 -3 -5 -2 -10 4 -10 6 0 7 -7 4 -17 -5 -12 -3 -14 7 -8 10 6 12 4 7 -9 -5
-11 -3 -15 5 -10 8 5 9 2 5 -10 -5 -11 -3 -15 5 -10 8 5 9 2 5 -9 -7 -20 2
-49 13 -42 9 6 22 -23 15 -35 -3 -4 2 -11 11 -14 10 -4 13 -13 9 -26 -4 -14
-2 -20 7 -18 8 2 13 -6 12 -19 0 -19 2 -21 14 -10 13 10 14 9 4 -10 -17 -31 4
-79 26 -60 13 10 14 9 4 -10 -9 -17 -9 -22 4 -27 10 -4 13 -13 9 -26 -4 -14
-2 -20 7 -18 8 2 13 -6 12 -19 0 -12 3 -20 7 -18 9 6 21 -24 13 -36 -3 -5 -1
-9 5 -9 6 0 7 -7 4 -17 -4 -10 -2 -14 4 -10 13 8 34 -38 27 -58 -4 -10 -2 -15
7 -13 9 2 14 -5 13 -19 0 -19 2 -21 14 -10 13 10 14 9 5 -7 -8 -15 -6 -23 9
-38 12 -12 18 -28 15 -39 -3 -10 -2 -17 2 -14 5 2 13 -7 20 -21 13 -30 14 -45
1 -24 -16 25 -10 -3 6 -30 11 -18 14 -19 9 -5 -5 15 -3 17 5 9 7 -7 13 -24 13
-38 1 -14 6 -26 10 -26 5 0 5 -4 2 -10 -3 -5 -2 -10 4 -10 6 0 8 -7 5 -15 -4
-10 0 -13 15 -10 17 3 19 1 11 -20 -7 -17 -5 -25 6 -29 8 -3 14 -11 14 -18 0
-9 -3 -9 -11 2 -9 12 -10 12 -5 -3 3 -10 6 -21 6 -24 0 -3 6 0 13 6 11 9 13 5
12 -19 -1 -16 4 -31 12 -34 7 -3 13 -11 13 -18 0 -9 -3 -9 -11 2 -9 12 -10 12
-5 -3 3 -10 6 -20 6 -23 0 -2 8 0 18 3 15 6 16 5 2 -12 -8 -10 -10 -16 -4 -12
12 7 38 -39 29 -53 -3 -4 3 -11 12 -14 15 -6 15 -8 3 -16 -11 -7 -12 -10 -2
-10 7 0 10 -4 7 -10 -3 -5 -2 -10 4 -10 15 0 43 -59 37 -76 -3 -8 -2 -13 3
-10 12 8 22 -20 15 -39 -5 -12 -2 -14 12 -8 17 6 18 5 4 -12 -12 -15 -12 -17
-1 -10 11 6 13 4 8 -9 -4 -9 -3 -15 2 -12 10 6 47 -71 38 -80 -3 -3 4 -15 15
-26 12 -12 18 -28 15 -39 -3 -10 -1 -17 4 -13 12 7 30 -42 22 -61 -3 -10 0
-15 8 -13 8 2 14 -5 14 -17 0 -11 6 -24 13 -28 6 -4 12 -15 12 -22 0 -8 5 -15
11 -15 5 0 7 5 3 12 -5 8 -2 9 9 5 9 -3 16 -3 16 1 -3 19 2 25 11 12 7 -11 10
-11 10 -2 0 7 5 10 10 7 6 -3 10 -2 10 3 0 5 24 20 53 32 28 12 53 23 55 25 1
1 -29 72 -67 157 -37 85 -75 170 -84 189 -8 19 -25 57 -37 84 -12 28 -38 86
-58 130 -19 44 -37 82 -41 85 -3 3 -7 12 -9 21 -1 9 -16 44 -32 78 -17 34 -30
63 -30 65 0 3 -15 37 -34 78 -18 40 -80 177 -136 303 -56 127 -110 248 -120
270 -10 22 -46 103 -80 180 -34 77 -67 146 -72 153 -6 6 -8 12 -5 12 3 0 -15
44 -39 98 -57 123 -56 120 -159 352 -47 107 -93 209 -100 226 -26 56 -72 159
-94 209 -13 28 -30 66 -38 85 -9 19 -33 73 -53 120 -21 47 -49 110 -63 140
-13 30 -34 75 -45 100 -20 47 -44 99 -94 210 -31 67 -50 111 -53 120 -1 3 -13
30 -27 60 -14 30 -77 172 -141 315 -63 143 -129 292 -147 330 -48 106 -57 126
-208 465 -77 173 -151 340 -165 370 -13 30 -49 111 -80 180 -30 69 -67 151
-81 183 -61 134 -81 179 -138 307 -32 74 -68 153 -78 175 -22 49 -45 100 -122
275 -33 74 -64 137 -69 138 -5 2 -7 7 -4 12 3 4 -17 56 -45 114 -27 58 -50
108 -50 110 0 3 -15 37 -34 78 -18 40 -59 132 -91 203 -31 72 -70 156 -86 188
-15 31 -26 57 -24 57 7 0 -69 155 -77 158 -5 2 -6 7 -3 12 2 4 -9 35 -25 68
-16 33 -41 88 -55 122 -14 33 -42 96 -61 138 -20 42 -41 91 -49 107 -7 17 -25
57 -40 90 -15 33 -45 101 -67 150 -21 50 -48 108 -58 130 -23 50 -157 352
-262 590 -44 99 -84 186 -90 193 -6 6 -7 12 -3 12 4 0 -4 10 -19 21 -33 26
-81 31 -121 13z m-5911 -2863 c3 -5 -1 -11 -9 -14 -9 -4 -12 -1 -8 9 6 16 10
17 17 5z m9174 -4676 c-3 -3 -9 2 -12 12 -6 14 -5 15 5 6 7 -7 10 -15 7 -18z
m-2063 -3380 c27 -3 54 -11 60 -17 7 -8 4 -9 -13 -5 -14 3 -20 1 -15 -6 4 -6
0 -8 -10 -4 -9 3 -18 -1 -21 -10 -4 -10 -14 -13 -27 -10 -15 4 -18 2 -10 -7 8
-10 4 -12 -19 -11 -17 1 -30 -2 -30 -7 0 -5 -4 -6 -10 -3 -5 3 -10 1 -10 -5 0
-7 -7 -9 -16 -6 -10 4 -13 2 -8 -6 5 -8 2 -9 -10 -5 -9 4 -15 3 -12 -2 8 -12
-41 -32 -61 -24 -12 5 -14 3 -8 -7 6 -10 4 -12 -10 -6 -16 6 -16 4 -4 -11 13
-15 12 -15 -5 -6 -14 8 -23 6 -37 -8 -11 -11 -25 -19 -31 -19 -7 1 -2 7 12 15
30 17 21 20 -14 4 -14 -7 -23 -17 -19 -22 4 -6 0 -8 -11 -4 -11 5 -15 3 -10
-5 5 -7 2 -9 -9 -5 -9 3 -18 0 -21 -9 -3 -8 -11 -14 -18 -14 -9 0 -8 3 2 10
17 11 10 13 -14 4 -9 -3 -13 -11 -9 -17 4 -6 0 -8 -10 -4 -12 4 -17 1 -17 -9
0 -12 -6 -15 -26 -10 -15 4 -23 3 -20 -3 7 -11 -22 -23 -36 -14 -6 3 -8 1 -4
-5 3 -6 2 -13 -4 -17 -5 -3 -10 -1 -10 6 0 8 -5 7 -12 -4 -15 -18 -66 -40 -78
-32 -4 3 -11 -2 -14 -11 -4 -10 -13 -13 -27 -9 -13 4 -19 3 -16 -2 7 -12 -40
-36 -54 -28 -5 4 -9 2 -9 -4 0 -6 -7 -7 -17 -4 -12 5 -14 3 -8 -7 6 -10 4 -12
-8 -7 -12 4 -17 1 -17 -9 0 -11 -6 -15 -20 -11 -11 3 -20 1 -20 -5 0 -6 -7 -7
-16 -4 -10 4 -13 2 -8 -6 5 -8 2 -9 -10 -5 -9 4 -15 3 -12 -2 7 -11 -22 -23
-35 -15 -5 3 -9 1 -9 -5 0 -6 -7 -7 -17 -4 -12 5 -14 3 -8 -7 6 -10 4 -12 -9
-7 -9 4 -14 3 -11 -2 3 -5 1 -12 -5 -16 -5 -3 -10 0 -10 7 0 9 -3 9 -10 -2 -5
-8 -10 -10 -10 -5 0 6 -5 2 -11 -7 -5 -10 -15 -18 -22 -18 -7 0 -6 4 3 10 17
11 10 13 -14 4 -9 -3 -13 -11 -9 -17 4 -6 0 -8 -10 -4 -10 4 -14 2 -11 -7 5
-12 -7 -16 -53 -17 -13 -1 -20 -5 -17 -10 6 -11 -44 -32 -57 -24 -5 4 -17 1
-26 -5 -17 -11 -17 -11 0 -6 34 11 16 -3 -30 -24 -26 -11 -53 -18 -60 -16 -8
3 -15 -5 -19 -20 -6 -23 -7 -23 -20 -7 -10 13 -13 14 -14 4 0 -8 -3 -11 -7 -8
-3 4 -11 0 -18 -9 -6 -9 -23 -17 -38 -17 -15 -1 -29 -8 -32 -16 -3 -7 -12 -10
-20 -7 -8 3 -15 1 -15 -4 0 -5 -8 -6 -17 -3 -16 6 -17 5 -3 -12 14 -17 14 -18
-9 -6 -13 7 -21 9 -18 3 7 -10 -42 -36 -51 -27 -3 3 1 5 8 5 7 0 11 2 8 5 -8
9 -38 -6 -32 -16 5 -9 0 -11 -28 -13 -7 -1 -18 -7 -24 -14 -5 -8 -22 -15 -37
-15 -15 -1 -27 -7 -27 -13 0 -14 -47 -27 -62 -18 -6 4 -8 3 -5 -3 7 -10 -62
-48 -71 -38 -3 3 1 5 8 5 7 0 11 2 8 5 -8 8 -39 -6 -33 -15 5 -9 -25 -23 -33
-16 -14 15 151 236 259 347 189 193 409 339 658 434 87 33 211 69 272 80 19 3
52 10 74 15 141 31 508 45 670 25z m-4100 -1875 c-3 -5 -12 -10 -18 -10 -7 0
-6 4 3 10 19 12 23 12 15 0z m-940 -420 c-3 -5 -12 -10 -18 -10 -7 0 -6 4 3
10 19 12 23 12 15 0z"/>
<path d="M10260 6510 c-8 -5 -10 -10 -5 -10 6 0 17 5 25 10 8 5 11 10 5 10 -5
0 -17 -5 -25 -10z"/>
<path d="M9725 6270 c-3 -6 1 -7 9 -4 18 7 21 14 7 14 -6 0 -13 -4 -16 -10z"/>
<path d="M9300 17330 c-8 -5 -10 -10 -5 -10 6 0 17 5 25 10 8 5 11 10 5 10 -5
0 -17 -5 -25 -10z"/>
<path d="M8940 17170 c-8 -5 -10 -10 -5 -10 6 0 17 5 25 10 8 5 11 10 5 10 -5
0 -17 -5 -25 -10z"/>
<path d="M7820 16670 c-8 -5 -10 -10 -5 -10 6 0 17 5 25 10 8 5 11 10 5 10 -5
0 -17 -5 -25 -10z"/>
<path d="M10150 16355 c0 -5 5 -17 10 -25 5 -8 10 -10 10 -5 0 6 -5 17 -10 25
-5 8 -10 11 -10 5z"/>
<path d="M7080 16340 c-8 -5 -10 -10 -5 -10 6 0 17 5 25 10 8 5 11 10 5 10 -5
0 -17 -5 -25 -10z"/>
<path d="M6990 16300 c-8 -5 -10 -10 -5 -10 6 0 17 5 25 10 8 5 11 10 5 10 -5
0 -17 -5 -25 -10z"/>
<path d="M10280 16065 c0 -5 5 -17 10 -25 5 -8 10 -10 10 -5 0 6 -5 17 -10 25
-5 8 -10 11 -10 5z"/>
<path d="M6430 16050 c-8 -5 -10 -10 -5 -10 6 0 17 5 25 10 8 5 11 10 5 10 -5
0 -17 -5 -25 -10z"/>
<path d="M5580 15670 c-8 -5 -10 -10 -5 -10 6 0 17 5 25 10 8 5 11 10 5 10 -5
0 -17 -5 -25 -10z"/>
<path d="M5490 15630 c-8 -5 -10 -10 -5 -10 6 0 17 5 25 10 8 5 11 10 5 10 -5
0 -17 -5 -25 -10z"/>
<path d="M4830 15335 c-14 -8 -20 -14 -15 -14 6 0 21 6 35 14 14 8 21 14 15
14 -5 0 -21 -6 -35 -14z"/>
<path d="M3430 14710 c-8 -5 -10 -10 -5 -10 6 0 17 5 25 10 8 5 11 10 5 10 -5
0 -17 -5 -25 -10z"/>
<path d="M3340 14670 c-9 -6 -10 -10 -3 -10 6 0 15 5 18 10 8 12 4 12 -15 0z"/>
<path d="M2980 14510 c-8 -5 -10 -10 -5 -10 6 0 17 5 25 10 8 5 11 10 5 10 -5
0 -17 -5 -25 -10z"/>
<path d="M10980 14495 c0 -5 5 -17 10 -25 5 -8 10 -10 10 -5 0 6 -5 17 -10 25
-5 8 -10 11 -10 5z"/>
<path d="M2490 14290 c-9 -6 -10 -10 -3 -10 6 0 15 5 18 10 8 12 4 12 -15 0z"/>
<path d="M2330 14220 c-8 -5 -10 -10 -5 -10 6 0 17 5 25 10 8 5 11 10 5 10 -5
0 -17 -5 -25 -10z"/>
<path d="M11110 14205 c0 -5 5 -17 10 -25 5 -8 10 -10 10 -5 0 6 -5 17 -10 25
-5 8 -10 11 -10 5z"/>
<path d="M1100 13670 c-8 -5 -10 -10 -5 -10 6 0 17 5 25 10 8 5 11 10 5 10 -5
0 -17 -5 -25 -10z"/>
<path d="M920 13590 c-8 -5 -10 -10 -5 -10 6 0 17 5 25 10 8 5 11 10 5 10 -5
0 -17 -5 -25 -10z"/>
<path d="M11400 13555 c0 -5 5 -17 10 -25 5 -8 10 -10 10 -5 0 6 -5 17 -10 25
-5 8 -10 11 -10 5z"/>
<path d="M11440 13465 c0 -5 5 -17 10 -25 5 -8 10 -10 10 -5 0 6 -5 17 -10 25
-5 8 -10 11 -10 5z"/>
<path d="M510 12725 c0 -5 5 -17 10 -25 5 -8 10 -10 10 -5 0 6 -5 17 -10 25
-5 8 -10 11 -10 5z"/>
<path d="M11770 12725 c0 -5 5 -17 10 -25 5 -8 10 -10 10 -5 0 6 -5 17 -10 25
-5 8 -10 11 -10 5z"/>
<path d="M12400 11315 c0 -5 5 -17 10 -25 5 -8 10 -10 10 -5 0 6 -5 17 -10 25
-5 8 -10 11 -10 5z"/>
<path d="M7105 11210 c-3 -6 1 -7 9 -4 18 7 21 14 7 14 -6 0 -13 -4 -16 -10z"/>
<path d="M1260 11045 c0 -5 5 -17 10 -25 5 -8 10 -10 10 -5 0 6 -5 17 -10 25
-5 8 -10 11 -10 5z"/>
<path d="M12560 10951 c0 -6 4 -13 10 -16 6 -3 7 1 4 9 -7 18 -14 21 -14 7z"/>
<path d="M1356 10827 c3 -10 9 -15 12 -12 3 3 0 11 -7 18 -10 9 -11 8 -5 -6z"/>
<path d="M1390 10755 c0 -5 5 -17 10 -25 5 -8 10 -10 10 -5 0 6 -5 17 -10 25
-5 8 -10 11 -10 5z"/>
<path d="M1551 10395 c0 -5 6 -21 14 -35 8 -14 14 -20 14 -15 0 6 -6 21 -14
35 -8 14 -14 21 -14 15z"/>
<path d="M8610 10331 c0 -6 4 -13 10 -16 6 -3 7 1 4 9 -7 18 -14 21 -14 7z"/>
<path d="M13060 9835 c0 -5 5 -17 10 -25 5 -8 10 -10 10 -5 0 6 -5 17 -10 25
-5 8 -10 11 -10 5z"/>
<path d="M13260 9381 c0 -6 4 -13 10 -16 6 -3 7 1 4 9 -7 18 -14 21 -14 7z"/>
<path d="M13320 9255 c0 -5 5 -17 10 -25 5 -8 10 -10 10 -5 0 6 -5 17 -10 25
-5 8 -10 11 -10 5z"/>
<path d="M13391 9095 c0 -5 6 -21 14 -35 8 -14 14 -20 14 -15 0 6 -6 21 -14
35 -8 14 -14 21 -14 15z"/>
<path d="M2300 8715 c0 -5 5 -17 10 -25 5 -8 10 -10 10 -5 0 6 -5 17 -10 25
-5 8 -10 11 -10 5z"/>
<path d="M13716 8627 c3 -10 9 -15 12 -12 3 3 0 11 -7 18 -10 9 -11 8 -5 -6z"/>
<path d="M2550 8155 c0 -5 5 -17 10 -25 5 -8 10 -10 10 -5 0 6 -5 17 -10 25
-5 8 -10 11 -10 5z"/>
<path d="M13620 8010 c-8 -5 -10 -10 -5 -10 6 0 17 5 25 10 8 5 11 10 5 10 -5
0 -17 -5 -25 -10z"/>
<path d="M15708 7994 c-2 -1 -48 -5 -103 -8 -125 -8 -200 -16 -290 -33 -16 -2
-43 -7 -60 -8 -16 -2 -52 -9 -80 -15 -27 -6 -61 -13 -75 -16 -30 -6 -53 -12
-60 -14 -3 -1 -8 -2 -12 -1 -4 0 -27 -6 -50 -14 -24 -7 -54 -16 -68 -19 -29
-5 -244 -81 -262 -93 -7 -4 -17 -8 -23 -8 -18 0 -255 -118 -255 -127 0 -4 -7
-8 -16 -8 -16 0 -73 -36 -86 -55 -4 -5 -8 -6 -8 -2 0 5 -29 -12 -65 -37 -36
-25 -70 -46 -75 -46 -4 0 -10 -3 -12 -7 -1 -5 -28 -27 -59 -51 -31 -23 -71
-56 -88 -72 -17 -17 -31 -28 -31 -26 0 6 -183 -176 -225 -224 -16 -18 -28 -34
-25 -34 2 -1 -9 -15 -25 -33 -37 -40 -42 -46 -85 -108 -19 -27 -43 -58 -52
-69 -10 -11 -18 -23 -18 -27 0 -4 -17 -34 -38 -66 -21 -32 -52 -83 -67 -113
-16 -30 -36 -63 -44 -72 -8 -10 -11 -18 -7 -18 4 0 1 -10 -6 -22 -7 -13 -11
-26 -10 -30 1 -5 -2 -8 -6 -8 -9 0 -44 -79 -42 -94 1 -5 -2 -12 -7 -15 -5 -3
-17 -26 -27 -51 -10 -25 -26 -63 -35 -85 -9 -21 -16 -42 -16 -45 -1 -10 -16
-55 -25 -75 -10 -21 -44 -133 -46 -150 0 -5 -4 -17 -7 -25 -6 -15 -27 -92 -32
-120 -2 -8 -8 -33 -14 -55 -6 -22 -13 -58 -17 -80 -3 -22 -8 -43 -10 -46 -2
-4 -6 -24 -9 -45 -4 -22 -8 -46 -10 -54 -3 -8 -7 -33 -10 -55 -6 -42 -15 -107
-21 -140 -10 -67 -15 -108 -30 -265 -25 -256 -24 -848 1 -1065 3 -22 7 -65 10
-95 9 -82 15 -132 19 -160 2 -14 7 -47 10 -75 4 -27 9 -57 12 -66 2 -9 7 -33
9 -54 3 -20 7 -41 10 -45 3 -5 8 -29 11 -55 3 -26 9 -58 14 -71 6 -14 9 -28 9
-32 -1 -4 0 -9 1 -12 3 -8 8 -32 15 -65 3 -16 10 -43 15 -60 21 -65 61 -205
59 -207 -1 -3 5 -18 37 -103 4 -11 8 -24 10 -30 11 -46 177 -409 194 -425 5
-5 24 -37 44 -75 29 -53 110 -175 118 -175 4 0 8 -7 8 -15 0 -8 5 -15 11 -15
5 0 7 -4 4 -10 -3 -5 -1 -10 5 -10 6 0 14 -8 17 -17 7 -19 31 -49 78 -97 16
-17 28 -32 27 -34 -10 -11 274 -282 339 -324 14 -9 32 -23 40 -30 22 -21 73
-53 82 -50 4 1 7 -2 7 -7 0 -5 17 -19 38 -32 84 -51 98 -60 122 -71 14 -7 31
-18 38 -25 7 -7 22 -13 33 -13 11 0 18 -4 15 -9 -3 -4 13 -14 34 -21 22 -7 40
-17 40 -22 0 -4 7 -8 15 -8 8 0 30 -9 50 -20 19 -11 37 -20 40 -20 3 0 22 -7
43 -15 59 -25 275 -97 299 -100 12 -2 27 -6 33 -10 5 -3 20 -8 33 -11 12 -2
33 -6 47 -10 63 -15 117 -26 140 -29 14 -2 41 -6 60 -10 19 -4 49 -9 65 -11
17 -2 46 -6 65 -9 155 -22 295 -29 525 -29 182 0 400 8 400 14 0 1 16 3 35 5
67 6 148 16 171 21 13 2 41 7 62 9 21 2 42 7 46 10 5 3 29 7 52 10 24 3 59 10
77 15 17 4 32 6 32 3 0 -3 7 0 15 7 8 7 15 10 15 7 0 -4 18 0 40 8 22 8 42 14
45 15 3 0 6 0 8 1 12 4 44 10 55 11 6 1 12 6 12 11 0 6 3 8 6 4 8 -7 177 54
186 67 4 6 8 8 8 3 0 -4 15 0 33 10 17 9 35 16 38 15 8 -2 222 107 229 117 3
3 11 7 18 9 7 1 59 33 114 70 56 37 109 72 117 77 9 6 18 12 21 15 3 3 25 21
50 40 100 77 302 274 355 345 16 22 37 47 47 56 10 9 18 21 18 28 0 6 5 11 12
11 6 0 8 3 5 6 -4 4 1 14 11 23 24 21 82 107 82 120 0 6 4 11 9 11 5 0 16 12
24 28 8 15 37 66 65 114 28 49 48 88 45 88 -3 0 -1 6 5 12 17 22 70 127 88
179 10 27 22 49 26 49 4 0 7 3 6 8 -2 6 23 81 55 162 6 14 11 30 13 35 2 6 15
48 30 95 14 47 27 94 29 105 2 11 4 20 5 20 1 0 3 7 5 15 2 8 11 39 19 69 8
30 13 58 10 63 -3 4 0 8 5 8 6 0 10 3 9 8 -2 6 3 36 18 117 2 11 11 54 19 95
13 68 20 110 29 180 2 14 6 47 10 74 4 27 9 72 12 100 3 28 7 71 10 96 2 25 7
77 11 115 8 84 9 737 1 815 -3 30 -9 92 -13 137 -3 46 -8 93 -11 105 -2 13 -6
46 -9 73 -6 62 -13 112 -20 145 -3 14 -7 47 -10 73 -3 27 -7 53 -11 58 -3 5
-8 26 -10 47 -6 46 -12 77 -14 77 -1 0 -3 11 -5 25 -2 14 -15 70 -30 125 -15
55 -28 105 -29 110 -11 44 -28 103 -33 115 -8 20 -8 20 -18 55 -10 38 -85 235
-115 301 -61 137 -156 314 -174 326 -7 5 -7 8 -1 8 6 0 1 7 -9 15 -11 8 -17
15 -13 15 13 0 -100 164 -145 212 -10 10 -15 18 -12 18 18 0 -204 234 -317
335 -70 63 -166 134 -173 128 -3 -3 -6 -2 -6 4 0 14 -116 91 -221 147 -30 16
-57 33 -60 39 -4 5 -12 6 -18 3 -6 -4 -11 -2 -11 5 0 7 -3 9 -7 6 -3 -4 -13
-1 -22 6 -32 28 -346 154 -426 171 -5 2 -30 8 -55 15 -25 7 -52 14 -60 16 -8
2 -34 8 -58 15 -24 6 -56 13 -72 15 -16 2 -37 6 -47 9 -10 3 -36 8 -58 11 -22
4 -49 8 -60 10 -11 2 -45 6 -75 9 -30 3 -77 9 -105 12 -27 4 -68 8 -90 10 -47
5 -554 12 -557 8z m422 -1178 c14 -2 48 -7 75 -10 28 -3 65 -10 83 -15 17 -5
32 -7 32 -4 0 3 7 0 15 -7 8 -7 15 -10 15 -7 0 9 161 -48 226 -80 74 -37 163
-93 224 -142 52 -41 200 -191 200 -203 0 -4 11 -18 25 -32 14 -14 25 -29 25
-34 0 -4 8 -17 18 -28 9 -11 26 -36 36 -55 11 -19 35 -63 55 -99 20 -36 38
-69 40 -75 8 -24 23 -62 36 -90 8 -16 26 -66 40 -110 14 -44 29 -87 32 -95 3
-8 7 -19 7 -25 1 -5 8 -30 16 -55 7 -25 13 -48 12 -51 -1 -4 3 -22 9 -40 5
-19 12 -50 15 -69 3 -19 7 -42 9 -50 3 -8 7 -33 10 -55 3 -22 9 -53 12 -70 4
-16 7 -39 8 -50 1 -11 6 -47 10 -80 23 -182 29 -302 29 -610 0 -335 -10 -516
-38 -685 -2 -14 -7 -50 -11 -80 -4 -30 -9 -58 -11 -61 -2 -4 -6 -24 -10 -45
-8 -58 -11 -72 -29 -144 -3 -11 -7 -28 -9 -38 -2 -9 -10 -37 -17 -62 -7 -25
-13 -47 -14 -50 -4 -21 -49 -151 -59 -175 -8 -16 -24 -52 -36 -80 -13 -27 -23
-56 -23 -62 0 -7 -4 -13 -8 -13 -4 0 -14 -18 -22 -39 -9 -22 -21 -42 -27 -46
-6 -3 -8 -11 -5 -16 4 -5 2 -9 -2 -9 -5 0 -17 -15 -27 -32 -30 -52 -115 -166
-157 -210 -22 -22 -39 -45 -39 -50 0 -6 -3 -9 -6 -6 -3 3 -17 -5 -32 -19 -15
-14 -56 -47 -92 -74 -36 -27 -69 -52 -75 -56 -5 -5 -29 -17 -52 -28 -24 -11
-43 -23 -43 -27 0 -5 -9 -8 -20 -8 -11 0 -20 -4 -20 -10 0 -5 -3 -9 -7 -8 -5
1 -25 -6 -47 -15 -21 -9 -44 -17 -50 -17 -7 0 -16 -4 -22 -9 -9 -9 -214 -59
-244 -60 -8 0 -42 -3 -75 -8 -113 -14 -447 -6 -475 12 -3 2 -24 6 -46 9 -21 3
-54 9 -71 15 -18 5 -33 8 -33 6 0 -3 -21 5 -46 16 -26 11 -49 18 -51 15 -2 -2
-38 14 -80 35 -42 22 -82 39 -89 39 -7 0 -14 3 -16 8 -2 4 -41 33 -88 64 -87
58 -221 181 -270 249 -15 21 -31 35 -35 31 -3 -4 -5 -2 -4 3 2 6 -20 45 -49
87 -28 42 -52 80 -52 83 0 3 -11 23 -25 45 -14 22 -23 40 -20 40 3 0 -1 10 -9
23 -13 20 -95 217 -101 241 -1 6 -5 18 -8 26 -3 8 -9 29 -13 45 -10 41 -11 45
-14 48 -1 1 -3 9 -5 17 -1 8 -12 51 -23 95 -11 44 -23 96 -26 115 -3 19 -9 46
-12 60 -3 14 -7 39 -9 55 -2 17 -6 46 -9 65 -3 19 -8 55 -11 80 -6 45 -8 65
-22 230 -15 184 -7 764 12 900 3 19 7 55 10 80 7 77 16 144 21 161 2 9 7 32 9
50 3 19 7 45 10 59 3 14 8 36 10 50 2 14 14 61 25 105 12 44 23 88 26 98 2 9
6 25 8 35 13 53 103 280 118 296 4 6 8 18 8 27 0 10 3 19 8 21 4 2 18 23 31
48 33 61 90 150 114 178 11 12 18 22 14 22 -3 0 9 16 29 35 19 19 32 35 30 35
-3 0 27 30 66 68 106 100 107 102 117 102 5 0 14 6 20 14 7 8 44 34 84 57 40
24 75 48 79 54 4 5 8 6 8 2 0 -5 15 1 33 12 19 11 37 18 40 14 4 -3 7 -1 7 5
0 7 3 11 8 10 4 -1 43 10 88 25 44 15 91 30 105 32 13 3 35 7 49 10 54 11 77
15 140 21 36 3 66 7 68 9 5 4 306 -3 332 -9z"/>
<path d="M2730 7755 c0 -5 5 -17 10 -25 5 -8 10 -10 10 -5 0 6 -5 17 -10 25
-5 8 -10 11 -10 5z"/>
<path d="M3010 7125 c0 -5 5 -17 10 -25 5 -8 10 -10 10 -5 0 6 -5 17 -10 25
-5 8 -10 11 -10 5z"/>
<path d="M3260 6565 c0 -5 5 -17 10 -25 5 -8 10 -10 10 -5 0 6 -5 17 -10 25
-5 8 -10 11 -10 5z"/>
<path d="M3350 6365 c0 -5 5 -17 10 -25 5 -8 10 -10 10 -5 0 6 -5 17 -10 25
-5 8 -10 11 -10 5z"/>
<path d="M6925 5020 c-3 -6 1 -7 9 -4 18 7 21 14 7 14 -6 0 -13 -4 -16 -10z"/>
<path d="M4050 4795 c0 -5 5 -17 10 -25 5 -8 10 -10 10 -5 0 6 -5 17 -10 25
-5 8 -10 11 -10 5z"/>
<path d="M6350 4765 c-14 -8 -20 -14 -15 -14 6 0 21 6 35 14 14 8 21 14 15 14
-5 0 -21 -6 -35 -14z"/>
<path d="M5690 4470 c-8 -5 -10 -10 -5 -10 6 0 17 5 25 10 8 5 11 10 5 10 -5
0 -17 -5 -25 -10z"/>
<path d="M4300 4235 c0 -5 5 -17 10 -25 5 -8 10 -10 10 -5 0 6 -5 17 -10 25
-5 8 -10 11 -10 5z"/>
<path d="M5130 4220 c-8 -5 -10 -10 -5 -10 6 0 17 5 25 10 8 5 11 10 5 10 -5
0 -17 -5 -25 -10z"/>
<path d="M4840 4090 c-8 -5 -10 -10 -5 -10 6 0 17 5 25 10 8 5 11 10 5 10 -5
0 -17 -5 -25 -10z"/>
</g>
</svg>
